<?xml version="1.0" encoding="iso-8859-1"?>
<!-- Generator: Adobe Illustrator 19.0.0, SVG Export Plug-In . SVG Version: 6.00 Build 0)  -->
<svg xmlns="http://www.w3.org/2000/svg" xmlns:xlink="http://www.w3.org/1999/xlink" version="1.1" id="Layer_1" x="0px" y="0px" viewBox="0 0 460.319 460.319" style="enable-background:new 0 0 460.319 460.319;" xml:space="preserve" width="500px" height="500px">
<g id="XMLID_197_">
	<g>
		<path d="M455.28,289.719l-71.216-63.275l19.19-93.313c1.08-5.249-0.724-10.675-4.729-14.235l-77.69-69.027    c-4.005-3.56-9.607-4.711-14.692-3.021L215.74,76.884l-71.216-63.275c-4.005-3.559-9.605-4.711-14.692-3.022L31.205,43.355    c-5.085,1.69-8.883,5.964-9.963,11.213L0.308,156.363c-1.08,5.249,0.723,10.675,4.73,14.235l77.69,69.027    c2.787,2.476,6.345,3.787,9.965,3.787c1.583,0,3.18-0.252,4.728-0.766l90.403-30.036l64.742,57.524l-19.19,93.313    c-1.08,5.249,0.724,10.675,4.73,14.235l77.689,69.027c2.786,2.476,6.345,3.787,9.965,3.787c1.584,0,3.18-0.251,4.728-0.766    l98.625-32.768c5.086-1.69,8.884-5.964,9.963-11.213l20.935-101.795C461.09,298.705,459.286,293.279,455.28,289.719z     M178.365,184.141l-82.186,27.306l-64.742-57.523l17.446-84.83l82.188-27.307l64.74,57.521L178.365,184.141z M207.752,190.187    l17.446-84.833l82.184-27.306l64.742,57.523l-17.445,84.83c-10.013,3.327-72.176,23.981-82.187,27.307L207.752,190.187z     M411.434,391.223l-82.188,27.307l-64.742-57.523l17.446-84.83c10.013-3.327,72.176-23.981,82.187-27.307l64.742,57.523    L411.434,391.223z" style="fill: rgba(13, 207, 220, 0.8)"/>
	</g>
</g>
<g>
</g>
<g>
</g>
<g>
</g>
<g>
</g>
<g>
</g>
<g>
</g>
<g>
</g>
<g>
</g>
<g>
</g>
<g>
</g>
<g>
</g>
<g>
</g>
<g>
</g>
<g>
</g>
<g>
</g>
</svg>
