<?xml version="1.0" encoding="utf-8"?>
<!-- Generator: Adobe Illustrator 16.0.0, SVG Export Plug-In . SVG Version: 6.00 Build 0)  -->
<!DOCTYPE svg PUBLIC "-//W3C//DTD SVG 1.1//EN" "http://www.w3.org/Graphics/SVG/1.1/DTD/svg11.dtd">
<svg version="1.1" id="Layer_1" xmlns="http://www.w3.org/2000/svg" xmlns:xlink="http://www.w3.org/1999/xlink" x="0px" y="0px"
	 height="70px" viewBox="0 0 721 631" enable-background="new 0 0 721 631" xml:space="preserve">
<g>
	<path fill="#000" d="M129.246,49.467H56.072V36.003h160.981v13.464h-73.173v191.422h-14.635V49.467z"/>
	<path fill="#000" d="M342.034,100.981v139.908h-14.342v-24.001c-10.83,13.464-31.611,27.513-59.125,27.513
		c-36.294,0-54.148-21.659-54.148-58.246v-85.174h14.343v82.247c0,41.27,25.757,47.709,44.196,47.709
		c22.245,0,45.075-16.391,54.734-31.903v-98.053H342.034z"/>
</g>
<line fill="none" stroke-linecap="round" stroke="#000" stroke-width="25" stroke-miterlimit="10" x1="707.738" y1="26.709" x2="45.594" y2="560.127"/>
<polyline fill="none" stroke-linecap="round" stroke="#000" stroke-width="25" stroke-miterlimit="10" points="35.044,254.017 91.623,302.592
	195.06,391.397 311.414,491.291 411.748,577.432 456.954,616.243 459,618 "/>
<path fill="#000" d="M366.806,417.338c0-38.929,28.099-73.759,71.125-73.759c26.05,0,45.66,12,57.368,28.099v-89.564h14.342V487
	h-14.342v-24.294c-11.708,16.099-31.318,27.807-57.368,27.807C394.904,490.512,366.806,455.974,366.806,417.338z M495.299,443.095
	v-51.807c-9.366-19.317-30.44-34.538-54.441-34.538c-33.952,0-59.417,26.343-59.417,60.588c0,33.66,25.465,60.002,59.417,60.002
	C464.565,477.34,485.933,462.999,495.299,443.095z"/>
<path fill="#000" d="M700.771,417.338c0-29.873-17.25-57.313-45.771-68.472v14.99c18.781,10.065,31.136,29.898,31.136,53.481
	c0,23.18-12.354,42.887-31.136,52.913v15.018C683.521,474.203,700.771,446.987,700.771,417.338z"/>
<path fill="#000" d="M626.134,477.34c-33.953,0-59.71-26.342-59.71-60.002c0-34.245,25.757-60.588,59.71-60.588
	c10.571,0,20.375,2.556,28.866,7.106v-14.99c-8.646-3.383-18.313-5.287-28.866-5.287c-45.075,0-74.345,34.83-74.345,73.759
	c0,38.636,29.27,73.174,74.345,73.174c10.553,0,20.221-1.889,28.866-5.243v-15.018C646.509,474.785,636.705,477.34,626.134,477.34z"
	/>
</svg>
