<?xml version="1.0" encoding="utf-8"?>
<!-- Generator: Adobe Illustrator 16.0.0, SVG Export Plug-In . SVG Version: 6.00 Build 0)  -->
<!DOCTYPE svg PUBLIC "-//W3C//DTD SVG 1.1//EN" "http://www.w3.org/Graphics/SVG/1.1/DTD/svg11.dtd">
<svg version="1.1" id="Layer_1" xmlns="http://www.w3.org/2000/svg" xmlns:xlink="http://www.w3.org/1999/xlink" x="0px" y="0px"
	 width="148.393px" height="155.893px" viewBox="0 0 148.393 155.893" enable-background="new 0 0 148.393 155.893"
	 xml:space="preserve">
<polygon display="none" fill="#FFFFFF" stroke="#000000" stroke-miterlimit="10" points="150.026,0 0,0 0,150.026 150.026,150.026 
	"/>
<path stroke="#FFFFFF" stroke-miterlimit="10" d="M42.619,69.645h5.857c3.47,0,5.208,1.366,5.208,4.095
	c0,1.354-0.593,2.483-1.782,3.377c1.721,0.75,2.583,2.084,2.583,4.007c0,1.471-0.508,2.645-1.523,3.52
	c-0.496,0.415-1.026,0.706-1.592,0.871c-0.568,0.165-1.331,0.25-2.29,0.25h-0.911V81.62h0.813c0.479,0,0.817-0.061,1.016-0.182
	c0.198-0.125,0.294-0.338,0.294-0.646c0-0.521-0.398-0.782-1.201-0.782h-0.923v-4.297c0.882,0,1.322-0.306,1.322-0.911
	c0-0.56-0.399-0.838-1.193-0.838H47.41v11.799h-4.793V69.645H42.619z M62.635,81.344v4.571c-0.362,0.065-0.692,0.098-0.991,0.098
	c-1.77,0-3.249-0.584-4.431-1.75c-1.181-1.165-1.77-2.624-1.77-4.382c0-1.709,0.597-3.155,1.79-4.345
	c1.192-1.188,2.645-1.786,4.354-1.786c1.902,0,3.406,0.558,4.502,1.673c1.102,1.112,1.648,2.637,1.648,4.563v5.776H63.32v-5.458
	c0-0.621-0.153-1.117-0.456-1.487c-0.302-0.371-0.709-0.556-1.221-0.556c-0.463,0-0.867,0.169-1.205,0.508
	c-0.338,0.338-0.508,0.74-0.508,1.205c0,0.491,0.152,0.891,0.459,1.209c0.306,0.313,0.696,0.472,1.169,0.472
	C61.946,81.656,62.305,81.551,62.635,81.344L62.635,81.344z M76.771,73.873v4.725c-0.308-0.174-0.589-0.259-0.838-0.259
	c-0.803,0-1.205,0.613-1.205,1.838v5.587H70.31v-6.438c0-1.697,0.463-3.055,1.395-4.067c0.927-1.012,2.168-1.516,3.72-1.516
	C75.771,73.744,76.218,73.788,76.771,73.873L76.771,73.873z M82.486,73.99v11.773h-4.417V73.99H82.486L82.486,73.99z M80.29,68.733
	c0.598,0,1.116,0.209,1.552,0.633c0.439,0.419,0.657,0.919,0.657,1.491c0,0.617-0.206,1.121-0.621,1.512
	c-0.411,0.396-0.942,0.592-1.588,0.592c-0.645,0-1.177-0.196-1.588-0.592c-0.416-0.391-0.621-0.895-0.621-1.512
	c0-0.572,0.218-1.072,0.657-1.491C79.173,68.943,79.693,68.733,80.29,68.733L80.29,68.733z M92.462,74.155v4.651
	c-0.621,0-1.048,0.116-1.281,0.351c-0.23,0.23-0.38,0.689-0.444,1.375c-0.201,2.277-1.084,3.881-2.645,4.817
	c-0.825,0.486-1.999,0.732-3.519,0.732H83.96v-4.676h0.202c0.709,0,1.213-0.149,1.517-0.443c0.302-0.294,0.479-0.813,0.527-1.552
	c0.062-1.205,0.173-2.052,0.334-2.539c0.162-0.488,0.492-0.972,0.988-1.455c0.862-0.843,2.062-1.262,3.6-1.262H92.462L92.462,74.155
	z M97.835,69.645v4.51h1.983v4.664h-1.983c0,0.935,0.149,1.584,0.443,1.938c0.294,0.352,0.838,0.528,1.625,0.528v4.644
	c-0.229,0.008-0.399,0.012-0.508,0.012c-1,0-1.943-0.234-2.83-0.697c-0.888-0.463-1.597-1.092-2.132-1.89
	c-0.678-1.017-1.017-2.362-1.017-4.039v-9.669L97.835,69.645L97.835,69.645z M108.533,81.344v4.571
	c-0.363,0.065-0.693,0.098-0.992,0.098c-1.77,0-3.249-0.584-4.43-1.75c-1.181-1.165-1.771-2.624-1.771-4.382
	c0-1.709,0.598-3.155,1.79-4.345c1.193-1.188,2.646-1.786,4.354-1.786c1.902,0,3.405,0.558,4.502,1.673
	c1.101,1.112,1.647,2.637,1.647,4.563v5.776h-4.417v-5.458c0-0.621-0.152-1.117-0.455-1.487c-0.304-0.37-0.709-0.556-1.222-0.556
	c-0.463,0-0.867,0.169-1.205,0.508c-0.339,0.338-0.508,0.74-0.508,1.205c0,0.491,0.153,0.891,0.46,1.209
	c0.306,0.313,0.697,0.472,1.169,0.472C107.843,81.656,108.202,81.551,108.533,81.344L108.533,81.344z"/>
<path stroke="#FFFFFF" stroke-miterlimit="10" d="M39.203,96.816l2.46,0.062c-0.162,1.273-0.604,2.257-1.323,2.952
	c-0.719,0.693-1.656,1.041-2.813,1.041c-1.177,0-2.163-0.395-2.954-1.183c-0.792-0.79-1.189-1.769-1.189-2.938
	c0-1.177,0.405-2.167,1.214-2.97c0.808-0.802,1.803-1.203,2.986-1.203c1.165,0,2.138,0.394,2.917,1.181
	c0.539,0.543,0.922,1.302,1.146,2.273l-2.519,0.168c-0.279-0.863-0.814-1.295-1.601-1.295c-0.501,0-0.915,0.173-1.24,0.521
	c-0.326,0.347-0.49,0.788-0.49,1.325c0,0.516,0.16,0.944,0.48,1.281c0.32,0.338,0.725,0.506,1.214,0.506
	c0.498,0,0.895-0.147,1.188-0.446C38.976,97.797,39.149,97.371,39.203,96.816L39.203,96.816z M45.348,94.786
	c0.816,0,1.518,0.294,2.103,0.883c0.584,0.588,0.877,1.293,0.877,2.115c0,0.832-0.296,1.542-0.889,2.128
	c-0.59,0.586-1.306,0.879-2.144,0.879c-0.837,0-1.552-0.294-2.146-0.883c-0.594-0.588-0.892-1.297-0.892-2.125
	c0-0.845,0.297-1.556,0.892-2.132C43.745,95.074,44.477,94.786,45.348,94.786L45.348,94.786z M45.291,96.92
	c-0.23,0-0.428,0.083-0.59,0.25c-0.162,0.168-0.243,0.374-0.243,0.616c0,0.241,0.083,0.444,0.247,0.614
	c0.164,0.169,0.359,0.254,0.586,0.254c0.231,0,0.43-0.085,0.592-0.254c0.164-0.17,0.247-0.374,0.247-0.614
	c0-0.243-0.081-0.448-0.242-0.616C45.725,97.003,45.525,96.92,45.291,96.92L45.291,96.92z M52.36,96.186v2.267h-0.966v2.222H49.23
	v-4.898c0-0.553,0.095-1.022,0.284-1.412c0.238-0.497,0.603-0.904,1.09-1.218c0.487-0.314,0.995-0.473,1.523-0.473l0.231,0.007
	v2.269c-0.05-0.006-0.087-0.008-0.111-0.008c-0.271,0-0.483,0.091-0.632,0.272c-0.148,0.183-0.223,0.44-0.223,0.776v0.198h0.967
	V96.186z M56.438,96.186v2.267h-0.966v2.222h-2.164v-4.898c0-0.553,0.095-1.022,0.283-1.412c0.239-0.497,0.604-0.904,1.091-1.218
	c0.487-0.314,0.996-0.473,1.524-0.473l0.231,0.007v2.269c-0.05-0.006-0.087-0.008-0.111-0.008c-0.271,0-0.484,0.091-0.632,0.272
	c-0.148,0.183-0.223,0.44-0.223,0.776v0.198h0.966V96.186z M63.054,98.141h-3.28c-0.049-0.166-0.075-0.318-0.075-0.458
	c0-0.191,0.036-0.382,0.105-0.566h1.1c-0.077-0.429-0.32-0.642-0.725-0.642c-0.271,0-0.49,0.113-0.659,0.344
	c-0.17,0.23-0.255,0.524-0.255,0.882c0,0.375,0.083,0.677,0.247,0.909c0.163,0.229,0.379,0.347,0.644,0.347
	c0.217,0,0.424-0.108,0.626-0.324l1.232,1.481c-0.575,0.452-1.213,0.677-1.916,0.677c-0.855,0-1.576-0.289-2.158-0.863
	c-0.583-0.574-0.873-1.285-0.873-2.135c0-0.843,0.294-1.558,0.882-2.14c0.588-0.583,1.31-0.873,2.166-0.873
	c0.837,0,1.541,0.284,2.109,0.853c0.567,0.569,0.853,1.271,0.853,2.104C63.078,97.821,63.07,97.955,63.054,98.141L63.054,98.141z
	 M69.62,98.141h-3.28c-0.05-0.166-0.074-0.318-0.074-0.458c0-0.191,0.034-0.382,0.104-0.566h1.1
	c-0.076-0.429-0.319-0.642-0.725-0.642c-0.271,0-0.489,0.113-0.659,0.344s-0.255,0.524-0.255,0.882c0,0.375,0.083,0.677,0.247,0.909
	c0.164,0.229,0.379,0.347,0.645,0.347c0.217,0,0.424-0.108,0.626-0.324l1.231,1.481c-0.575,0.452-1.213,0.677-1.916,0.677
	c-0.854,0-1.576-0.289-2.159-0.863c-0.582-0.574-0.873-1.285-0.873-2.135c0-0.843,0.294-1.558,0.883-2.14
	c0.589-0.583,1.31-0.873,2.167-0.873c0.837,0,1.541,0.284,2.108,0.853c0.569,0.569,0.854,1.271,0.854,2.104
	C69.644,97.821,69.635,97.955,69.62,98.141L69.62,98.141z M76.683,98.51v2.239c-0.179,0.032-0.341,0.047-0.486,0.047
	c-0.867,0-1.591-0.286-2.17-0.856c-0.579-0.571-0.867-1.286-0.867-2.146c0-0.837,0.292-1.546,0.876-2.128s1.295-0.875,2.132-0.875
	c0.933,0,1.669,0.272,2.206,0.819c0.539,0.545,0.809,1.292,0.809,2.234v2.83h-2.165V98c0-0.304-0.075-0.547-0.224-0.729
	C76.647,97.09,76.448,97,76.197,97c-0.227,0-0.424,0.083-0.59,0.249s-0.249,0.363-0.249,0.59c0,0.241,0.075,0.438,0.225,0.593
	c0.15,0.153,0.341,0.23,0.572,0.23C76.345,98.662,76.521,98.61,76.683,98.51L76.683,98.51z M85.586,100.674h-2.164v-3.256
	c0-0.332-0.136-0.498-0.411-0.498c-0.271,0-0.404,0.166-0.404,0.498v3.256h-2.164v-3.217c0-0.752,0.249-1.384,0.746-1.899
	c0.498-0.516,1.107-0.772,1.829-0.772c0.825,0,1.486,0.298,1.983,0.896c0.39,0.466,0.584,1.115,0.584,1.948L85.586,100.674
	L85.586,100.674z M90.399,92.777h2.164v4.806c0,0.885-0.231,1.604-0.695,2.161c-0.265,0.32-0.604,0.575-1.015,0.762
	c-0.411,0.189-0.831,0.284-1.265,0.284c-0.86,0-1.586-0.29-2.176-0.869s-0.884-1.287-0.884-2.128c0-0.812,0.292-1.519,0.879-2.112
	c0.586-0.595,1.281-0.892,2.083-0.892c0.126,0,0.32,0.012,0.578,0.036v2.383C89.892,97.068,89.713,97,89.536,97
	c-0.223,0-0.415,0.083-0.575,0.247s-0.24,0.361-0.24,0.592c0,0.226,0.083,0.417,0.248,0.577c0.166,0.16,0.365,0.241,0.597,0.241
	c0.555,0,0.833-0.385,0.833-1.153L90.399,92.777L90.399,92.777z M104.579,100.674h-2.164v-3.111c0-0.241-0.025-0.407-0.075-0.5
	c-0.049-0.094-0.14-0.139-0.271-0.139c-0.243,0-0.363,0.216-0.363,0.645v3.105H99.54v-3.111c0-0.241-0.025-0.407-0.079-0.5
	c-0.051-0.094-0.142-0.139-0.273-0.139c-0.239,0-0.357,0.216-0.357,0.645v3.105h-2.164v-3.553c0-0.646,0.217-1.199,0.653-1.653
	c0.437-0.451,0.964-0.679,1.586-0.679c0.64,0,1.214,0.271,1.724,0.812c0.567-0.541,1.135-0.812,1.7-0.812
	c0.723,0,1.301,0.263,1.735,0.788c0.344,0.409,0.516,1.005,0.516,1.787L104.579,100.674L104.579,100.674z M108.581,94.786
	c0.818,0,1.52,0.294,2.104,0.883c0.585,0.588,0.877,1.293,0.877,2.115c0,0.832-0.296,1.542-0.89,2.128
	c-0.59,0.586-1.305,0.879-2.143,0.879c-0.837,0-1.552-0.294-2.146-0.883c-0.594-0.588-0.89-1.297-0.89-2.125
	c0-0.845,0.296-1.556,0.89-2.132C106.978,95.074,107.71,94.786,108.581,94.786L108.581,94.786z M108.524,96.92
	c-0.231,0-0.429,0.083-0.59,0.25c-0.162,0.168-0.243,0.374-0.243,0.616c0,0.241,0.083,0.444,0.247,0.614
	c0.164,0.169,0.358,0.254,0.586,0.254c0.23,0,0.429-0.085,0.592-0.254c0.164-0.17,0.247-0.374,0.247-0.614
	c0-0.243-0.081-0.448-0.243-0.616C108.958,97.003,108.759,96.92,108.524,96.92L108.524,96.92z M115.628,94.849v2.313
	c-0.149-0.085-0.288-0.126-0.411-0.126c-0.393,0-0.59,0.3-0.59,0.9v2.736h-2.164V97.52c0-0.832,0.228-1.497,0.684-1.993
	c0.455-0.495,1.062-0.742,1.822-0.742C115.139,94.786,115.358,94.807,115.628,94.849L115.628,94.849z M121.934,98.141h-3.28
	c-0.049-0.166-0.075-0.318-0.075-0.458c0-0.191,0.036-0.382,0.105-0.566h1.1c-0.077-0.429-0.32-0.642-0.725-0.642
	c-0.271,0-0.49,0.113-0.66,0.344s-0.254,0.524-0.254,0.882c0,0.375,0.083,0.677,0.247,0.909c0.164,0.229,0.379,0.347,0.644,0.347
	c0.217,0,0.424-0.108,0.625-0.324l1.232,1.481c-0.575,0.452-1.212,0.677-1.916,0.677c-0.855,0-1.576-0.289-2.158-0.863
	c-0.583-0.574-0.873-1.285-0.873-2.135c0-0.843,0.294-1.558,0.882-2.14c0.588-0.583,1.31-0.873,2.167-0.873
	c0.837,0,1.54,0.284,2.108,0.853c0.568,0.569,0.854,1.271,0.854,2.104C121.958,97.821,121.95,97.955,121.934,98.141L121.934,98.141z
	"/>
<path stroke="#FFFFFF" stroke-miterlimit="10" d="M16.987,138.786c-0.96,0.976-2.468,5.47,2.373,3.54
	c13.258-4.477,37.295-20.916,111.509-16.483c3.655,0.409,3.026-2.282,2.312-3.461C128.054,113.374,58.355,86.599,16.987,138.786
	L16.987,138.786z"/>
<path stroke="#FFFFFF" stroke-miterlimit="10" d="M56.301,42.821c-0.886-1.32-2.653-6.595,2.171-5.395
	c13.5,4.024,16.603,5.202,31.517-0.42c6.155-2.254,5.972,3.909,5.925,4.632C95.661,52.771,67.385,63.135,56.301,42.821
	L56.301,42.821z"/>
<path stroke="#FFFFFF" stroke-miterlimit="10" d="M51.311,55.021c-0.974-1.221-2.22-5.483,1.493-4.052
	c10.2,6.931,31.2,7.557,44.651,2.146c7.758-3.136,4.13,3.121,4.219,3.046C97.38,64.344,64.329,73.343,51.311,55.021L51.311,55.021z"
	/>
<path stroke="#FFFFFF" stroke-miterlimit="10" d="M74.126,39.384c-0.724,0.326-2.416,1.446-2.307,0.027
	c2.848-4.87,0.256-8.257-6.709-13.082c-2.884-1.555,1.066-1.092,1.986-1.064C76.262,26.861,84.021,32.969,74.126,39.384
	L74.126,39.384z"/>
<path stroke="#FFFFFF" stroke-miterlimit="10" d="M82.41,36.163c-0.169,0.494-0.567,2.352,1.644,1.165
	c1.886-1.055,8.161-5.516,6.865-9.56c-0.707-4.131-7.69-6.065-13.348-7.561c-5.658-1.495-7.042-3.384-7.278-6.285
	c-0.235-2.9,3.847-7.49,10.093-5.469c1.839,0.609,1.512-0.21,1.498-0.258c-0.299-0.543-1.119-1.466-4.931-1.525
	c-4.479-0.176-12.347,3.033-12.229,9.538c0.117,6.505,7.042,9.055,10.048,9.779c2.475,0.791,8.81,2.571,8.575,6.681
	C83.367,35.333,82.749,35.19,82.41,36.163L82.41,36.163z"/>
</svg>
