<?xml version="1.0" encoding="utf-8"?>
<!-- Generator: Adobe Illustrator 16.0.0, SVG Export Plug-In . SVG Version: 6.00 Build 0)  -->
<!DOCTYPE svg PUBLIC "-//W3C//DTD SVG 1.1//EN" "http://www.w3.org/Graphics/SVG/1.1/DTD/svg11.dtd">
<svg version="1.1" id="Layer_1" xmlns="http://www.w3.org/2000/svg" xmlns:xlink="http://www.w3.org/1999/xlink" x="0px" y="0px"
	 width="1279px" height="455px" viewBox="0 0 1279 455" enable-background="new 0 0 1279 455" xml:space="preserve">
<path d="M541,155V39.166h23.388V155H541z"/>
<path d="M586.828,155V39.166h79.409v19.596h-56.021v27.418h48.356v19.595h-48.356V155H586.828z"/>
<path d="M685.516,155V39.166h85.888v19.596h-62.5v25.68h58.154v19.516h-58.154v31.527h64.713V155H685.516z"/>
<path d="M837.697,155V39.166h23.388V155H837.697z"/>
<path d="M883.604,155V39.166h22.756l47.408,77.354V39.166h21.729V155H952.03l-46.697-75.537V155H883.604z"/>
<path d="M468.452,421.75v-76.505H354v-63.8L475.319,40h45.019v241.188h34.717v64.058h-34.717v76.505H468.452z M468.452,281.187
	V151.256l-64.284,129.931H468.452z"/>
<path d="M17.747,286.89l34.62-3.364c2.083,11.619,6.311,20.155,12.683,25.604c6.371,5.45,14.966,8.175,25.785,8.175
	c11.46,0,20.095-2.425,25.905-7.273c5.81-4.848,8.714-10.518,8.714-17.009c0-4.167-1.222-7.713-3.666-10.638
	c-2.445-2.926-6.712-5.471-12.803-7.633c-4.167-1.444-13.664-4.009-28.49-7.694c-19.073-4.728-32.456-10.539-40.149-17.431
	c-10.819-9.697-16.229-21.517-16.229-35.461c0-8.976,2.545-17.371,7.634-25.185s12.421-13.765,21.998-17.85
	C63.326,167.043,74.885,165,88.429,165c22.119,0,38.768,4.849,49.947,14.545s17.049,22.641,17.61,38.828l-35.581,1.562
	c-1.523-9.055-4.789-15.567-9.798-19.534c-5.008-3.966-12.521-5.95-22.539-5.95c-10.338,0-18.432,2.123-24.282,6.371
	c-3.767,2.726-5.649,6.372-5.649,10.938c0,4.169,1.763,7.733,5.289,10.699c4.488,3.766,15.387,7.694,32.696,11.78
	c17.31,4.087,30.112,8.315,38.406,12.682c8.295,4.369,14.786,10.338,19.474,17.911c4.688,7.573,7.032,16.93,7.032,28.068
	c0,10.098-2.805,19.556-8.415,28.37s-13.543,15.367-23.801,19.654c-10.258,4.287-23.04,6.432-38.347,6.432
	c-22.279,0-39.388-5.15-51.329-15.448C27.203,321.613,20.07,306.605,17.747,286.89z"/>
<path d="M190.967,344.231V168.005h130.667v29.812h-95.085v39.068h88.473v29.69h-88.473v47.964H325v29.691H190.967z"/>
<path d="M581.226,281.533l34.621-3.364c2.083,11.619,6.31,20.155,12.682,25.604c6.369,5.45,14.965,8.175,25.783,8.175
	c11.461,0,20.096-2.425,25.906-7.273c5.809-4.848,8.715-10.518,8.715-17.009c0-4.167-1.223-7.713-3.666-10.638
	c-2.445-2.926-6.713-5.471-12.803-7.633c-4.168-1.444-13.664-4.009-28.49-7.694c-19.072-4.728-32.456-10.539-40.149-17.431
	c-10.819-9.697-16.228-21.517-16.228-35.461c0-8.976,2.544-17.371,7.634-25.185c5.088-7.813,12.421-13.765,21.999-17.85
	c9.575-4.088,21.137-6.132,34.679-6.132c22.119,0,38.768,4.849,49.947,14.545c11.178,9.696,17.049,22.641,17.609,38.828
	l-35.58,1.562c-1.523-9.055-4.789-15.567-9.797-19.534c-5.01-3.966-12.523-5.95-22.539-5.95c-10.338,0-18.432,2.123-24.283,6.371
	c-3.766,2.726-5.648,6.372-5.648,10.938c0,4.169,1.762,7.733,5.289,10.699c4.486,3.766,15.387,7.694,32.695,11.78
	c17.311,4.087,30.113,8.315,38.406,12.682c8.295,4.369,14.785,10.338,19.475,17.911c4.688,7.573,7.031,16.93,7.031,28.068
	c0,10.098-2.805,19.556-8.414,28.37s-13.543,15.367-23.801,19.654S669.259,342,653.951,342c-22.278,0-39.387-5.15-51.328-15.448
	C590.682,316.255,583.55,301.248,581.226,281.533z"/>
<path d="M747.234,251.842c0-17.951,2.684-33.017,8.053-45.199c4.008-8.976,9.479-17.029,16.41-24.161
	c6.932-7.133,14.525-12.422,22.779-15.868c10.979-4.647,23.641-6.972,37.984-6.972c25.967,0,46.742,8.055,62.328,24.162
	c15.588,16.107,23.381,38.508,23.381,67.197c0,28.448-7.732,50.707-23.199,66.775c-15.467,16.067-36.143,24.102-62.027,24.102
	c-26.207,0-47.041-7.994-62.51-23.98C754.966,301.909,747.234,279.89,747.234,251.842z M783.898,250.64
	c0,19.955,4.607,35.082,13.824,45.378c9.215,10.298,20.916,15.448,35.1,15.448c14.186,0,25.824-5.11,34.922-15.327
	c9.094-10.217,13.643-25.544,13.643-45.979c0-20.195-4.428-35.262-13.283-45.199c-8.855-9.937-20.615-14.906-35.281-14.906
	c-14.664,0-26.486,5.029-35.461,15.087C788.384,215.199,783.898,230.366,783.898,250.64z"/>
<path d="M946.3,338.874V162.648h34.619l72.125,117.684V162.648h33.057v176.226H1050.4l-71.043-114.919v114.919H946.3z"/>
<path d="M1114.71,281.533l34.621-3.364c2.084,11.619,6.312,20.155,12.682,25.604c6.371,5.45,14.967,8.175,25.783,8.175
	c11.461,0,20.098-2.425,25.906-7.273c5.811-4.848,8.715-10.518,8.715-17.009c0-4.167-1.221-7.713-3.666-10.638
	c-2.443-2.926-6.711-5.471-12.801-7.633c-4.168-1.444-13.664-4.009-28.49-7.694c-19.074-4.728-32.457-10.539-40.15-17.431
	c-10.818-9.697-16.229-21.517-16.229-35.461c0-8.976,2.545-17.371,7.633-25.185c5.092-7.813,12.424-13.765,22-17.85
	c9.576-4.088,21.137-6.132,34.68-6.132c22.117,0,38.768,4.849,49.945,14.545c11.18,9.696,17.051,22.641,17.611,38.828l-35.582,1.562
	c-1.521-9.055-4.787-15.567-9.795-19.534c-5.01-3.966-12.523-5.95-22.541-5.95c-10.336,0-18.432,2.123-24.281,6.371
	c-3.768,2.726-5.65,6.372-5.65,10.938c0,4.169,1.764,7.733,5.289,10.699c4.488,3.766,15.387,7.694,32.697,11.78
	c17.311,4.087,30.113,8.315,38.406,12.682c8.295,4.369,14.785,10.338,19.473,17.911c4.689,7.573,7.033,16.93,7.033,28.068
	c0,10.098-2.805,19.556-8.414,28.37s-13.545,15.367-23.801,19.654c-10.258,4.287-23.039,6.432-38.348,6.432
	c-22.277,0-39.387-5.15-51.328-15.448C1124.167,316.255,1117.037,301.248,1114.71,281.533z"/>
</svg>
