<?xml version="1.0" encoding="utf-8"?>
<!-- Generator: Adobe Illustrator 16.0.0, SVG Export Plug-In . SVG Version: 6.00 Build 0)  -->
<!DOCTYPE svg PUBLIC "-//W3C//DTD SVG 1.1//EN" "http://www.w3.org/Graphics/SVG/1.1/DTD/svg11.dtd">
<svg version="1.1" id="Layer_1" xmlns="http://www.w3.org/2000/svg" xmlns:xlink="http://www.w3.org/1999/xlink" x="0px" y="0px"
	 width="771px" height="120px" viewBox="0 0 771 120" enable-background="new 0 0 771 120" xml:space="preserve">
<g>
	<path d="M45.368,85.966v-5.187c4.186,3.64,12.922,7.735,22.933,7.735c10.739,0,18.747-5.188,18.747-13.56
		c0-9.374-8.646-11.648-19.02-14.561c-11.739-3.367-20.749-6.461-20.749-17.655c0-8.554,7.098-15.834,21.204-15.834
		c7.645,0,14.288,2.093,19.384,5.369v4.823c-5.187-3.549-11.648-5.824-19.202-5.824c-11.831,0-16.835,5.551-16.835,11.558
		c0,8.372,8.281,10.556,18.747,13.56c10.192,2.912,21.113,6.461,21.113,18.564c0,11.739-10.92,17.837-23.024,17.837
		C58.563,92.792,49.827,89.425,45.368,85.966z"/>
	<path d="M119.078,59.849c0-18.838,13.65-32.943,31.76-32.943c17.927,0,31.669,14.105,31.669,32.943
		c0,18.929-13.742,32.943-31.669,32.943C132.729,92.792,119.078,78.777,119.078,59.849z M177.866,59.849
		c0-16.472-11.921-28.575-27.028-28.575c-15.107,0-27.119,12.104-27.119,28.575s12.012,28.666,27.119,28.666
		C165.945,88.515,177.866,76.32,177.866,59.849z"/>
	<path d="M213.262,64.49V27.997h4.55V64.49c0,15.289,8.099,24.025,21.021,24.025c12.923,0,20.931-8.646,20.931-24.025V27.997h4.55
		V64.49c0,18.474-10.738,28.302-25.481,28.302C223.91,92.792,213.262,82.963,213.262,64.49z"/>
	<path d="M297.71,27.997h4.55v59.517h36.856V91.7H297.71V27.997z"/>
	<path d="M362.046,85.966v-5.187c4.187,3.64,12.923,7.735,22.933,7.735c10.738,0,18.747-5.188,18.747-13.56
		c0-9.374-8.646-11.648-19.02-14.561c-11.739-3.367-20.749-6.461-20.749-17.655c0-8.554,7.099-15.834,21.204-15.834
		c7.644,0,14.287,2.093,19.384,5.369v4.823c-5.188-3.549-11.648-5.824-19.202-5.824c-11.83,0-16.836,5.551-16.836,11.558
		c0,8.372,8.281,10.556,18.747,13.56c10.192,2.912,21.112,6.461,21.112,18.564c0,11.739-10.92,17.837-23.023,17.837
		C375.241,92.792,366.505,89.425,362.046,85.966z"/>
	<path d="M454.139,32.184h-22.751v-4.187h50.052v4.187h-22.751V91.7h-4.55V32.184z"/>
	<path d="M502.277,59.849c0-18.838,13.65-32.943,31.76-32.943c17.928,0,31.67,14.105,31.67,32.943
		c0,18.929-13.742,32.943-31.67,32.943C515.928,92.792,502.277,78.777,502.277,59.849z M561.065,59.849
		c0-16.472-11.922-28.575-27.028-28.575s-27.119,12.104-27.119,28.575s12.013,28.666,27.119,28.666S561.065,76.32,561.065,59.849z"
		/>
	<path d="M597.463,27.997h4.004l42.953,55.785V27.997h4.551V91.7h-3.913l-43.045-55.876V91.7h-4.55V27.997z"/>
	<path d="M683.457,27.997h42.771v4.187h-38.222v23.115h31.578v4.277h-31.578v27.938h39.678V91.7h-44.228V27.997z"/>
</g>
</svg>
