<?xml version="1.0" encoding="utf-8"?>
<!-- Generator: Adobe Illustrator 16.0.0, SVG Export Plug-In . SVG Version: 6.00 Build 0)  -->
<!DOCTYPE svg PUBLIC "-//W3C//DTD SVG 1.1//EN" "http://www.w3.org/Graphics/SVG/1.1/DTD/svg11.dtd">
<svg version="1.1" id="Layer_1" xmlns="http://www.w3.org/2000/svg" xmlns:xlink="http://www.w3.org/1999/xlink" x="0px" y="0px"
	 width="2125.984px" height="2125.984px" viewBox="0 0 2125.984 2125.984" enable-background="new 0 0 2125.984 2125.984"
	 xml:space="preserve">
<g>
	<polygon fill-rule="evenodd" clip-rule="evenodd" stroke="#FFFFFF" stroke-width="0.216" stroke-miterlimit="22.9256" points="
		2125.984,0 0,0 0,2125.984 2125.984,2125.984 2125.984,0 	"/>
	<path fill="#FFFFFF" stroke="#000000" stroke-width="0.216" stroke-miterlimit="22.9256" d="M603.941,986.914h82.992
		c49.178,0,73.796,19.363,73.796,58.031c0,19.193-8.396,35.185-25.246,47.865c24.39,10.625,36.612,29.531,36.612,56.775
		c0,20.848-7.197,37.469-21.59,49.863c-7.025,5.883-14.565,9.996-22.562,12.338c-8.053,2.342-18.849,3.541-32.443,3.541h-12.909
		v-58.717h11.538c6.797,0,11.595-0.857,14.394-2.57c2.799-1.771,4.169-4.799,4.169-9.139c0-7.369-5.654-11.082-17.021-11.082h-13.08
		v-60.887c12.509,0,18.735-4.34,18.735-12.908c0-7.939-5.655-11.88-16.907-11.88h-12.565v167.183h-67.913V986.914L603.941,986.914z
		 M887.587,1152.726v64.771c-5.14,0.914-9.824,1.371-14.051,1.371c-25.075,0-46.037-8.281-62.772-24.789
		c-16.735-16.506-25.075-37.184-25.075-62.086c0-24.219,8.454-44.723,25.36-61.574c16.907-16.849,37.469-25.302,61.687-25.302
		c26.959,0,48.265,7.882,63.801,23.705c15.593,15.764,23.361,37.354,23.361,64.656v81.85h-62.601v-77.338
		c0-8.795-2.17-15.82-6.454-21.076c-4.284-5.254-10.053-7.881-17.307-7.881c-6.568,0-12.28,2.398-17.078,7.195
		c-4.798,4.799-7.197,10.51-7.197,17.078c0,6.969,2.171,12.623,6.512,17.137c4.341,4.455,9.881,6.682,16.564,6.682
		C877.82,1157.125,882.904,1155.64,887.587,1152.726L887.587,1152.726z M1087.9,1046.831v66.942
		c-4.342-2.457-8.34-3.656-11.881-3.656c-11.366,0-17.078,8.682-17.078,26.047v79.164h-62.602v-91.217
		c0-24.047,6.569-43.295,19.763-57.633c13.137-14.335,30.729-21.475,52.719-21.475
		C1073.735,1045.003,1080.074,1045.631,1087.9,1046.831L1087.9,1046.831z M1168.893,1048.487v166.84h-62.602v-166.84H1168.893
		L1168.893,1048.487z M1137.763,974.005c8.453,0,15.821,2.97,21.99,8.968c6.226,5.94,9.311,13.022,9.311,21.133
		c0,8.739-2.913,15.879-8.796,21.419c-5.826,5.598-13.366,8.396-22.505,8.396s-16.679-2.799-22.505-8.396
		c-5.883-5.54-8.796-12.68-8.796-21.419c0-8.111,3.085-15.193,9.311-21.133C1121.942,976.976,1129.31,974.005,1137.763,974.005
		L1137.763,974.005z M1310.259,1050.829v65.915c-8.797,0-14.851,1.656-18.164,4.969c-3.256,3.256-5.369,9.768-6.282,19.477
		c-2.856,32.271-15.365,55.004-37.47,68.256c-11.709,6.912-28.33,10.396-49.864,10.396h-8.682v-66.258h2.856
		c10.052,0,17.192-2.113,21.476-6.283c4.284-4.17,6.797-11.537,7.482-21.99c0.857-17.078,2.456-29.072,4.741-35.984
		c2.284-6.91,6.968-13.766,13.993-20.619c12.224-11.938,29.245-17.877,51.007-17.877H1310.259L1310.259,1050.829z M1386.397,986.914
		v63.915h28.102v66.084h-28.102c0,13.252,2.113,22.447,6.282,27.475c4.17,4.969,11.881,7.482,23.02,7.482v65.799
		c-3.256,0.115-5.655,0.172-7.197,0.172c-14.165,0-27.531-3.312-40.097-9.881c-12.566-6.568-22.619-15.48-30.216-26.789
		c-9.595-14.395-14.393-33.471-14.393-57.232V986.914H1386.397L1386.397,986.914z M1537.987,1152.726v64.771
		c-5.141,0.914-9.823,1.371-14.051,1.371c-25.074,0-46.036-8.281-62.771-24.789c-16.736-16.506-25.075-37.184-25.075-62.086
		c0-24.219,8.453-44.723,25.36-61.574c16.906-16.849,37.47-25.302,61.687-25.302c26.96,0,48.265,7.882,63.801,23.705
		c15.594,15.764,23.361,37.354,23.361,64.656v81.85h-62.601v-77.338c0-8.795-2.171-15.82-6.455-21.076
		c-4.283-5.254-10.053-7.881-17.307-7.881c-6.568,0-12.28,2.398-17.078,7.195c-4.798,4.799-7.197,10.51-7.197,17.078
		c0,6.969,2.171,12.623,6.512,17.137c4.342,4.455,9.882,6.682,16.564,6.682C1528.22,1157.125,1533.303,1155.64,1537.987,1152.726
		L1537.987,1152.726z"/>
	<path fill="#FFFFFF" stroke="#000000" stroke-width="0.216" stroke-miterlimit="22.9256" d="M555.533,1371.949l34.865,0.896
		c-2.294,18.047-8.562,31.982-18.748,41.832c-10.186,9.822-23.477,14.746-39.874,14.746c-16.677,0-30.64-5.596-41.861-16.76
		c-11.221-11.193-16.845-25.045-16.845-41.609c0-16.678,5.736-30.697,17.181-42.086c11.445-11.359,25.548-17.041,42.337-17.041
		c16.509,0,30.276,5.568,41.329,16.734c7.639,7.695,13.068,18.439,16.229,32.207l-35.677,2.379
		c-3.974-12.229-11.557-18.357-22.693-18.357c-7.107,0-12.956,2.463-17.573,7.389c-4.617,4.896-6.939,11.164-6.939,18.775
		c0,7.303,2.266,13.375,6.799,18.16s10.27,7.162,17.209,7.162c7.052,0,12.676-2.098,16.845-6.322
		C552.314,1385.857,554.777,1379.812,555.533,1371.949L555.533,1371.949z M642.612,1343.183c11.584,0,21.518,4.17,29.801,12.508
		c8.283,8.34,12.424,18.328,12.424,29.969c0,11.781-4.197,21.854-12.591,30.164c-8.367,8.311-18.497,12.453-30.361,12.453
		s-21.994-4.17-30.416-12.508c-8.423-8.34-12.62-18.385-12.62-30.109c0-11.977,4.197-22.049,12.62-30.221
		C619.891,1347.269,630.272,1343.183,642.612,1343.183L642.612,1343.183z M641.801,1373.433c-3.274,0-6.072,1.174-8.367,3.553
		c-2.294,2.379-3.442,5.289-3.442,8.73c0,3.414,1.175,6.297,3.498,8.703s5.093,3.609,8.311,3.609c3.274,0,6.072-1.203,8.395-3.609
		c2.323-2.406,3.498-5.289,3.498-8.703c0-3.441-1.147-6.352-3.441-8.73S645.131,1373.433,641.801,1373.433L641.801,1373.433z
		 M741.976,1363.023v32.123h-13.683v31.48h-30.668v-69.424c0-7.834,1.343-14.494,4.03-20.008
		c3.386-7.051,8.534-12.814,15.446-17.264s14.103-6.688,21.602-6.688l3.274,0.084v32.15c-0.7-0.084-1.231-0.111-1.567-0.111
		c-3.861,0-6.855,1.287-8.954,3.861c-2.099,2.574-3.162,6.24-3.162,10.996v2.799H741.976L741.976,1363.023z M799.758,1363.023
		v32.123h-13.683v31.48h-30.668v-69.424c0-7.834,1.343-14.494,4.03-20.008c3.385-7.051,8.534-12.814,15.446-17.264
		c6.911-4.449,14.103-6.688,21.602-6.688l3.273,0.084v32.15c-0.699-0.084-1.231-0.111-1.567-0.111c-3.861,0-6.855,1.287-8.954,3.861
		s-3.162,6.24-3.162,10.996v2.799H799.758L799.758,1363.023z M893.526,1390.724h-46.478c-0.7-2.35-1.063-4.504-1.063-6.49
		c0-2.715,0.503-5.4,1.482-8.031h15.586c-1.091-6.072-4.533-9.094-10.27-9.094c-3.833,0-6.939,1.623-9.346,4.869
		c-2.407,3.273-3.61,7.441-3.61,12.508c0,5.316,1.175,9.598,3.498,12.871c2.323,3.273,5.373,4.924,9.123,4.924
		c3.078,0,6.016-1.539,8.87-4.588l17.46,20.986c-8.143,6.408-17.181,9.598-27.142,9.598c-12.116,0-22.33-4.086-30.584-12.229
		s-12.368-18.217-12.368-30.248c0-11.949,4.169-22.078,12.508-30.332c8.339-8.256,18.552-12.369,30.696-12.369
		c11.864,0,21.826,4.029,29.885,12.088c8.059,8.061,12.088,17.994,12.088,29.803C893.862,1386.191,893.75,1388.095,893.526,1390.724
		L893.526,1390.724z M986.566,1390.724h-46.478c-0.7-2.35-1.063-4.504-1.063-6.49c0-2.715,0.503-5.4,1.483-8.031h15.586
		c-1.091-6.072-4.533-9.094-10.269-9.094c-3.833,0-6.94,1.623-9.346,4.869c-2.406,3.273-3.61,7.441-3.61,12.508
		c0,5.316,1.175,9.598,3.498,12.871c2.322,3.273,5.373,4.924,9.122,4.924c3.078,0,6.016-1.539,8.87-4.588l17.461,20.986
		c-8.143,6.408-17.181,9.598-27.143,9.598c-12.116,0-22.33-4.086-30.584-12.229c-8.254-8.143-12.368-18.217-12.368-30.248
		c0-11.949,4.169-22.078,12.508-30.332c8.339-8.256,18.552-12.369,30.696-12.369c11.864,0,21.826,4.029,29.885,12.088
		c8.059,8.061,12.088,17.994,12.088,29.803C986.901,1386.191,986.79,1388.095,986.566,1390.724L986.566,1390.724z
		 M1086.657,1395.957v31.732c-2.519,0.447-4.812,0.672-6.883,0.672c-12.284,0-22.554-4.057-30.752-12.145
		c-8.199-8.086-12.284-18.217-12.284-30.416c0-11.865,4.141-21.91,12.424-30.164c8.283-8.256,18.356-12.396,30.22-12.396
		c13.208,0,23.645,3.861,31.256,11.613c7.64,7.723,11.445,18.299,11.445,31.674v40.1h-30.669v-37.889
		c0-4.309-1.062-7.75-3.161-10.324s-4.925-3.861-8.479-3.861c-3.219,0-6.017,1.174-8.367,3.525c-2.351,2.35-3.525,5.148-3.525,8.365
		c0,3.414,1.063,6.186,3.189,8.395c2.127,2.184,4.841,3.275,8.115,3.275C1081.872,1398.113,1084.363,1397.384,1086.657,1395.957
		L1086.657,1395.957z M1212.828,1426.626h-30.668v-46.143c0-4.701-1.931-7.051-5.82-7.051c-3.834,0-5.736,2.35-5.736,7.051v46.143
		h-30.668v-45.584c0-10.66,3.525-19.615,10.577-26.918c7.051-7.303,15.697-10.941,25.911-10.941c11.696,0,21.07,4.227,28.121,12.705
		c5.513,6.604,8.283,15.809,8.283,27.617V1426.626L1212.828,1426.626z M1281.019,1314.726h30.669v68.107
		c0,12.537-3.274,22.723-9.85,30.613c-3.75,4.533-8.562,8.143-14.383,10.801c-5.82,2.686-11.78,4.029-17.908,4.029
		c-12.2,0-22.47-4.113-30.836-12.312c-8.367-8.199-12.536-18.244-12.536-30.164c0-11.529,4.141-21.518,12.452-29.941
		c8.311-8.422,18.16-12.619,29.521-12.619c1.791,0,4.533,0.168,8.198,0.504v33.773c-2.518-1.986-5.036-2.965-7.555-2.965
		c-3.162,0-5.876,1.174-8.143,3.496c-2.267,2.324-3.414,5.121-3.414,8.395c0,3.191,1.175,5.904,3.525,8.172
		c2.351,2.266,5.177,3.414,8.451,3.414c7.863,0,11.808-5.457,11.808-16.342V1314.726L1281.019,1314.726z M1481.958,1426.626h-30.668
		v-44.1c0-3.414-0.363-5.766-1.063-7.08c-0.699-1.314-1.986-1.959-3.861-1.959c-3.442,0-5.148,3.051-5.148,9.123v44.016h-30.669
		v-44.1c0-3.414-0.363-5.766-1.119-7.08c-0.728-1.314-2.015-1.959-3.889-1.959c-3.387,0-5.065,3.051-5.065,9.123v44.016h-30.668
		v-50.34c0-9.178,3.078-16.986,9.262-23.422c6.185-6.408,13.655-9.625,22.47-9.625c9.066,0,17.209,3.834,24.429,11.5
		c8.03-7.666,16.062-11.5,24.092-11.5c10.241,0,18.44,3.721,24.597,11.164c4.868,5.793,7.303,14.244,7.303,25.324V1426.626
		L1481.958,1426.626z M1538.677,1343.183c11.584,0,21.518,4.17,29.801,12.508c8.282,8.34,12.424,18.328,12.424,29.969
		c0,11.781-4.197,21.854-12.592,30.164c-8.367,8.311-18.496,12.453-30.36,12.453s-21.994-4.17-30.417-12.508
		c-8.422-8.34-12.619-18.385-12.619-30.109c0-11.977,4.197-22.049,12.619-30.221
		C1515.956,1347.269,1526.336,1343.183,1538.677,1343.183L1538.677,1343.183z M1537.866,1373.433c-3.274,0-6.072,1.174-8.367,3.553
		c-2.294,2.379-3.441,5.289-3.441,8.73c0,3.414,1.175,6.297,3.498,8.703c2.322,2.406,5.093,3.609,8.311,3.609
		c3.273,0,6.072-1.203,8.395-3.609s3.497-5.289,3.497-8.703c0-3.441-1.146-6.352-3.441-8.73
		C1544.022,1374.607,1541.196,1373.433,1537.866,1373.433L1537.866,1373.433z M1638.544,1344.08v32.795
		c-2.127-1.203-4.085-1.791-5.82-1.791c-5.568,0-8.366,4.252-8.366,12.76v38.783h-30.669v-44.688
		c0-11.781,3.218-21.211,9.683-28.234c6.436-7.023,15.054-10.521,25.827-10.521
		C1631.605,1343.183,1634.71,1343.492,1638.544,1344.08L1638.544,1344.08z M1727.891,1390.724h-46.479
		c-0.699-2.35-1.063-4.504-1.063-6.49c0-2.715,0.504-5.4,1.483-8.031h15.586c-1.092-6.072-4.533-9.094-10.27-9.094
		c-3.834,0-6.939,1.623-9.346,4.869c-2.407,3.273-3.61,7.441-3.61,12.508c0,5.316,1.176,9.598,3.498,12.871s5.372,4.924,9.122,4.924
		c3.078,0,6.016-1.539,8.87-4.588l17.461,20.986c-8.143,6.408-17.181,9.598-27.143,9.598c-12.116,0-22.329-4.086-30.584-12.229
		s-12.368-18.217-12.368-30.248c0-11.949,4.169-22.078,12.508-30.332c8.339-8.256,18.552-12.369,30.696-12.369
		c11.864,0,21.826,4.029,29.885,12.088c8.059,8.061,12.088,17.994,12.088,29.803
		C1728.226,1386.191,1728.114,1388.095,1727.891,1390.724L1727.891,1390.724z"/>
	
		<path fill-rule="evenodd" clip-rule="evenodd" fill="#FF6600" stroke="#000000" stroke-width="0.216" stroke-miterlimit="22.9256" d="
		M240.722,1966.697c-13.602,13.824-34.966,77.514,33.628,50.166c187.872-63.443,528.497-296.389,1580.166-233.584
		c51.795,5.791,42.879-32.355,32.76-49.049C1814.618,1606.597,826.938,1227.175,240.722,1966.697L240.722,1966.697z"/>
	
		<path fill-rule="evenodd" clip-rule="evenodd" fill="#FF6600" stroke="#000000" stroke-width="0.216" stroke-miterlimit="22.9256" d="
		M797.821,606.8c-12.549-18.708-37.603-93.458,30.758-76.426c191.297,57.021,235.278,73.722,446.619-5.957
		c87.219-31.933,84.629,55.393,83.971,65.629C1355.589,747.811,954.909,894.674,797.821,606.8L797.821,606.8z"/>
	
		<path fill-rule="evenodd" clip-rule="evenodd" fill="#FFFFFF" stroke="#000000" stroke-width="0.216" stroke-miterlimit="22.9256" d="
		M727.109,779.691c-13.787-17.284-31.443-77.705,21.156-57.405c144.546,98.195,442.14,107.074,632.748,30.403
		c109.938-44.439,58.527,44.225,59.785,43.168C1379.956,911.807,911.585,1039.324,727.109,779.691L727.109,779.691z"/>
	
		<path fill-rule="evenodd" clip-rule="evenodd" fill="#FFFFFF" stroke="#000000" stroke-width="0.216" stroke-miterlimit="22.9256" d="
		M1050.42,558.101c-10.262,4.622-34.229,20.5-32.687,0.391c40.359-69.015,3.637-117.002-95.067-185.384
		c-40.868-22.029,15.123-15.471,28.141-15.093C1080.691,380.641,1190.63,467.193,1050.42,558.101L1050.42,558.101z"/>
	
		<path fill-rule="evenodd" clip-rule="evenodd" fill="#FFFFFF" stroke="#000000" stroke-width="0.216" stroke-miterlimit="22.9256" d="
		M1167.805,512.45c-2.401,7.007-8.038,33.321,23.278,16.504c26.724-14.948,115.664-78.165,97.292-135.465
		c-10.021-58.546-108.983-85.95-189.155-107.126c-80.171-21.177-99.797-47.958-103.137-89.065
		c-3.34-41.106,54.496-106.159,143.019-77.508c26.052,8.645,21.422-2.974,21.228-3.645c-4.237-7.692-15.868-20.771-69.878-21.613
		c-63.469-2.491-174.957,42.976-173.287,135.154s99.796,128.303,142.388,138.58c35.075,11.211,124.851,36.436,121.51,94.67
		C1181.375,500.693,1172.607,498.67,1167.805,512.45L1167.805,512.45z"/>
</g>
</svg>
