<?xml version="1.0" encoding="utf-8"?>
<!-- Generator: Adobe Illustrator 16.0.0, SVG Export Plug-In . SVG Version: 6.00 Build 0)  -->
<!DOCTYPE svg PUBLIC "-//W3C//DTD SVG 1.1//EN" "http://www.w3.org/Graphics/SVG/1.1/DTD/svg11.dtd">
<svg version="1.1" id="Layer_1" xmlns="http://www.w3.org/2000/svg" xmlns:xlink="http://www.w3.org/1999/xlink" x="0px" y="0px"
	 width="369.464px" height="84.333px" viewBox="0 0 369.464 84.333" enable-background="new 0 0 369.464 84.333"
	 xml:space="preserve">
<g>
	<g>
		<path d="M23.43,43.472c-5.854-0.055-11.705,0-17.559,0c-0.601,0-0.876-0.822,0.11-0.766c0.765,0.053,1.913,0.164,2.57,0.053
			c1.915-0.326,1.915-0.326,1.915-3.278V8.957c0-2.954,0-2.954-1.915-3.281c-0.657-0.109-1.805,0-2.57,0.054
			C4.995,5.787,5.27,4.966,5.871,4.966c5.415,0.055,10.447,0.108,15.59-0.22c7.821-0.492,12.143,3.501,12.195,8.589
			c0.11,8.203-6.781,8.915-10.554,9.297v0.111c6.672,0.763,11.54,3.827,11.54,10.61C34.642,40.573,28.462,43.526,23.43,43.472z
			 M18.781,5.676c-0.603,0.054-1.531,0.111-2.188,0.111c-0.546,0-0.767,0.327-0.767,0.767V21.21c0,0.439,0.438,0.986,1.039,0.986
			h2.408c4.758,0,9.025-1.04,9.025-8.369C28.298,10.983,26.984,5.239,18.781,5.676z M18.67,23.071h-1.806
			c-0.655,0-1.039,0.602-1.039,1.094v17.174c0,1.259,0.547,1.312,1.258,1.312c1.095,0,2.134,0.057,3.118,0
			c5.635-0.329,8.478-3.5,8.478-9.79C28.68,26.899,27.641,23.071,18.67,23.071z"/>
		<path d="M67.646,43.473H39.093c-0.77,0-0.824-0.936,0-0.879c1.427,0.109,1.866,0.218,3.184,0c1.098-0.166,1.318-0.769,1.318-1.975
			V7.067c0-0.607-0.495-1.429-0.933-1.485c-1.209-0.109-2.252-0.109-3.569,0c-0.99,0.113-0.878-0.876,0-0.876
			c5.216,0.108,10.104,0,14.605,0c0.935,0,0.935,0.932,0,0.876c-1.316-0.109-2.361-0.109-3.569,0
			c-0.494,0.056-1.042,0.605-1.042,1.21l0.054,35.472c0,0.33,0.658,0.439,0.987,0.439c1.813,0.054,2.253,0,4.229-0.109
			c10.103-0.551,13.289-1.375,13.289-11.312c0-0.712,0.879-0.768,0.824,0c-0.22,3.901-0.274,7.688,0,11.422
			C68.525,43.199,68.25,43.473,67.646,43.473z"/>
		<path d="M90.623,43.861c-10.227,0-17.73-8.59-17.73-20.12c0-10.825,7.504-19.47,17.73-19.47c10.278,0,17.784,8.646,17.784,19.47
			C108.406,35.271,100.901,43.861,90.623,43.861z M90.295,5.138c-10.604,0.165-11.528,11.749-11.528,18.71
			c0,8.103,1.468,19.362,12.237,19.142c10.605-0.163,11.637-11.744,11.53-19.36C102.424,14.494,101.065,4.921,90.295,5.138z"/>
		<path d="M187.519,5.531c-0.332,0.054-0.494,0.218-0.494,0.546v35.594c0,0.439,0.219,0.821,0.875,0.878
			c1.317,0.111,1.92,0.111,3.071,0c0.933-0.109,0.933,0.821,0,0.821c-4.824-0.109-8.718-0.109-13.544,0.056
			c-0.933,0-0.933-0.934,0-0.877c1.371,0.111,2.304,0.111,3.4,0c0.878-0.109,0.821-0.438,0.821-0.878V8.931l-11.735,35.757
			c0,0-0.165-0.056-0.219-0.163L157.847,7.998c0,0-0.163,0.111-0.163,0.22v28.298c0,4.719,1.698,6.197,4.715,6.033
			c0.932-0.057,0.932,0.821,0,0.821c-3.291,0-6.306-0.163-9.543-0.053c-0.932,0-0.932-0.825,0-0.769
			c3.51,0.111,4.004-1.589,4.004-5.099V6.078c0-0.329,0.054-0.492-0.494-0.546c-1.262-0.11-2.029-0.11-3.456-0.055
			c-0.877,0-0.877-0.822,0-0.714c3.126,0.111,6.035,0.055,9.16-0.055c0.329,0,0.384,0.166,0.438,0.33l8.831,31.479L181.54,4.981
			c0.109-0.275,0.331-0.275,0.441-0.275c3.125,0.11,5.975,0.11,9.157,0c0.823-0.053,0.93,0.879,0,0.825
			C190.148,5.476,188.889,5.421,187.519,5.531z"/>
		<path d="M225.527,5.699c-2.311,0-2.64,1.428-3.3,3.022l-8.524,19.63c-0.053,0.055-0.053,0.166-0.053,0.221v13.469
			c0,0.55,0.053,0.55,0.658,0.55h4.068c1.046,0,1.046,0.883,0,0.883c-4.838-0.113-9.733-0.113-14.571,0
			c-0.824,0-0.935-0.883,0-0.883h3.848c0.607,0,0.607-0.055,0.607-0.55V29.341l-9.348-22.655c-0.276-0.658-0.549-0.933-0.771-0.987
			c-1.263-0.333-1.538-0.112-2.252,0c-0.88,0.054-0.992-0.993-0.054-0.993c3.572,0.055,8.139,0.11,11.819,0
			c0.936,0,0.936,1.101-0.054,0.993c-0.495-0.112-1.43-0.112-2.475-0.112c-0.605,0-0.108,1.099-0.108,1.099l8.357,20.126
			c0.11,0.218,0.219,0,0.219,0l6.38-15.233c0.933-2.199,1.373-3.353,1.373-4.398c0-0.934-0.657-1.482-1.869-1.482h-1.099
			c-1.044,0-1.153-1.045,0-0.993c2.475,0.11,5.554,0,7.864,0c1.044,0,1.099,0.993,0,0.993H225.527z"/>
		<path d="M259.997,43.454c-5.285-0.214-10.57-0.326-16.07-0.161c-0.603,0-0.875-0.817,0.107-0.763
			c0.763,0.053,1.907,0.165,2.561,0.053c1.907-0.324,1.907-0.324,1.907-3.267V9.027c0-2.999,0-2.999-1.907-3.271
			c-0.654-0.108-1.798,0-2.561,0.056c-0.981,0.054-0.709-0.817-0.107-0.817c5.338,0.108,10.785-0.492,15.96-0.218
			c14.329,0.762,17.598,10.188,17.817,19.72C277.918,36.158,270.73,43.89,259.997,43.454z M257.109,5.703
			c-0.492,0.053-1.09,0.109-1.691,0.164c-0.545,0-1.576-0.054-1.576,1.308v34.319c0,1.089,0.434,0.928,0.977,0.981
			c1.364,0.107,2.344,0,3.488,0c4.74,0,13.455-1.853,13.455-17.978C271.762,15.398,270.294,5.756,257.109,5.703z"/>
		<path d="M296.636,43.472c-0.818,0-1.034-0.817,0-0.765c1.036,0.058,1.967,0.111,2.894,0c2.182-0.271,2.347-0.761,2.129-1.418
			l-3.219-9.93c-0.055-0.218-0.221-0.218-0.438-0.218h-11.732c-0.164,0-0.273,0-0.273,0.163l-3.11,9.877
			c-0.219,0.654-0.382,1.364,1.582,1.525c1.255,0.111,2.021,0.058,3.272,0c0.932-0.053,0.658,0.765,0,0.765h-10.313
			c-0.709,0-0.982-0.817,0.056-0.765c0.71,0.058,1.31,0.111,1.91,0c1.909-0.324,2.073-0.434,2.946-3.271L293.58,3.799
			c0.166-0.547,0.382-0.547,0.601,0l12.773,35.638c1.09,2.999,0.87,3.163,2.946,3.271c0.708,0.058,1.198,0.058,1.798,0
			c1.147-0.107,0.983,0.765,0.058,0.765H296.636z M292.218,13.131c-0.382-1.038-0.382-1.255-0.766,0.108l-5.075,16.975
			c-0.054,0.107,0.054,0.162,0.218,0.162h11.133c0.163,0,0.384,0,0.273-0.219L292.218,13.131z"/>
		<path d="M338.531,5.699c-2.308,0-2.637,1.429-3.298,3.023l-8.525,19.629c-0.055,0.057-0.055,0.167-0.055,0.222v13.47
			c0,0.55,0.055,0.55,0.663,0.55h4.068c1.045,0,1.045,0.88,0,0.88c-4.84-0.11-9.733-0.11-14.574,0c-0.824,0-0.935-0.88,0-0.88h3.85
			c0.604,0,0.604-0.055,0.604-0.55V29.344l-9.347-22.658c-0.274-0.658-0.549-0.933-0.77-0.987c-1.265-0.333-1.541-0.112-2.254,0
			c-0.882,0.054-0.992-0.993-0.058-0.993c3.578,0.055,8.139,0.11,11.824,0c0.935,0,0.935,1.101-0.055,0.993
			c-0.495-0.112-1.43-0.112-2.475-0.112c-0.606,0-0.111,1.099-0.111,1.099l8.36,20.128c0.11,0.218,0.221,0,0.221,0l6.378-15.234
			c0.935-2.2,1.374-3.354,1.374-4.399c0-0.934-0.656-1.482-1.869-1.482h-1.099c-1.045,0-1.155-1.045,0-0.993
			c2.473,0.11,5.556,0,7.862,0c1.046,0,1.1,0.993,0,0.993H338.531z"/>
		<path d="M354.123,43.462c-6.187-0.214-7.785-3.037-9.702-3.037c-1.229,0-1.386,1.33-1.386,2.236c0.053,0.587-0.798,0.48-0.748,0
			c0.322-3.889,0.162-7.887,0-12.259c0-0.587,0.801-0.532,0.801,0c0.266,7.89,5.81,12.259,11.196,12.259
			c4.958,0,8.476-3.198,8.476-7.834c0-3.678-2.879-5.863-8.637-8.637c-9.384-4.478-11.836-5.544-11.836-11.301
			c0-5.865,3.841-10.132,9.542-10.184c6.56-0.052,7.306,3.145,9.013,3.145c1.171,0,1.49-0.906,1.49-1.546
			c0-0.586,0.908-0.586,0.856,0c-0.161,3.465-0.161,5.811,0,9.756c0.052,0.642-0.799,0.587-0.856,0
			c-0.319-5.332-4.37-10.503-10.503-10.556c-4.315-0.054-7.408,2.933-7.408,7.624c0,2.507,1.917,4.159,10.235,7.303
			c8.637,3.252,10.556,6.664,10.556,11.196C365.212,38.398,361.532,43.729,354.123,43.462z"/>
		<path d="M131.751,43.861c-10.227,0-17.732-8.59-17.732-20.12c0-10.825,7.505-19.47,17.732-19.47
			c10.278,0,17.782,8.646,17.782,19.47C149.533,35.271,142.029,43.861,131.751,43.861z M131.422,5.138
			c-10.603,0.165-11.527,11.749-11.527,18.71c0,8.103,1.468,19.362,12.235,19.142c10.607-0.163,11.639-11.744,11.53-19.36
			C143.553,14.494,142.194,4.921,131.422,5.138z"/>
	</g>
	<g>
		<g>
			<g>
				<line x1="5.328" y1="67.309" x2="86.401" y2="67.309"/>
				<rect x="5.328" y="66.648" width="81.074" height="1.32"/>
			</g>
			<g>
				<line x1="284.053" y1="67.309" x2="365.125" y2="67.309"/>
				<rect x="284.053" y="66.648" width="81.072" height="1.32"/>
			</g>
		</g>
		<g>
			<path d="M93.182,64.06l-0.924,4.024c-2.126,9.013-4.254,9.777-5.966,9.777c-0.715,0-1.756-0.346-1.756-1.272
				c0-0.532,0.345-1.04,1.017-1.04c0.301,0,0.788,0.301,0.788,0.947c0,0.116-0.257,0.554-0.257,0.579
				c0,0.254,0.348,0.254,0.51,0.254c0.693,0,1.387-0.461,1.757-1.294c0.254-0.532,0.786-2.219,1.109-3.607l1.987-8.368H89.46
				l0.16-0.532h1.991c0.53-2.52,2.542-6.841,5.407-6.841c0.879,0,1.78,0.414,1.78,1.454c0,0.509-0.415,0.881-0.901,0.881
				c-0.485,0-0.901-0.303-0.901-0.788c0-0.391,0.256-0.554,0.256-0.808c0-0.231-0.396-0.278-0.556-0.278
				c-1.042,0-2.797,2.195-3.4,6.38h2.313l-0.162,0.532H93.182z"/>
			<path d="M97.851,64.06h-1.827l0.163-0.532h0.438c0.648,0,2.22-0.14,3.099-0.229l-0.579,2.311l0.047,0.023
				c0.556-1.066,1.596-2.334,2.843-2.334c0.532,0,1.064,0.321,1.064,0.924c0,0.53-0.416,0.923-0.924,0.923
				c-0.648,0-0.926-0.622-1.319-0.622c-0.485,0-1.825,1.618-2.38,3.835l-1.086,4.325h-1.664L97.851,64.06z"/>
			<path d="M110.196,70.326c-0.856,1.572-1.828,2.61-3.678,2.61c-2.034,0-3.466-1.779-3.466-3.673c0-2.892,2.865-5.964,5.641-5.964
				c1.247,0,2.219,0.784,2.219,1.894c0,1.456-1.433,2.981-5.71,3.005c-0.162,0.646-0.347,1.295-0.347,2.012
				c0,1.156,0.532,2.149,1.757,2.149c1.663,0,2.38-0.924,3.19-2.312L110.196,70.326z M109.27,64.893
				c0-0.556-0.439-1.063-0.995-1.063c-1.618,0-2.589,2.565-2.958,3.883C108.045,67.712,109.27,66.417,109.27,64.893z"/>
			<path d="M111.604,71.132c0-0.553,0.254-1.109,0.855-1.109c0.463,0,0.879,0.371,0.879,0.881c0,0.415-0.347,0.854-0.347,1.039
				c0,0.416,0.81,0.532,1.155,0.532c1.596,0,2.197-0.625,2.197-1.595c0-1.55-2.936-2.796-2.936-5.062
				c0-1.734,1.527-2.519,2.983-2.519c0.648,0,1.941,0.321,1.941,1.478c0,0.555-0.323,0.856-0.808,0.856s-0.741-0.326-0.741-0.694
				c0-0.186,0.14-0.509,0.14-0.693c0-0.416-0.461-0.485-0.833-0.485c-0.763,0-1.433,0.414-1.433,1.296
				c0,1.017,1.387,1.711,2.682,3.374c0.347,0.438,0.439,1.038,0.414,1.64c0,0.556-0.623,2.866-3.442,2.866
				C111.997,72.936,111.604,71.622,111.604,71.132z"/>
			<path d="M121.705,57.334l0.162-0.531h0.741c1.641,0,2.197-0.07,2.727-0.116l-2.103,8.715l0.045,0.021
				c0.785-1.249,2.335-2.124,3.421-2.124c1.156,0,2.035,0.415,2.035,1.917c0,0.692-1.643,6.334-1.643,6.519
				c0,0.371,0.372,0.464,0.648,0.464c1.064,0,1.827-1.942,2.151-2.799l0.438,0.187c-0.623,1.546-1.479,3.35-3.33,3.35
				c-0.786,0-1.456-0.392-1.456-1.249c0-1.385,1.643-6.029,1.643-6.794c0-0.74-0.556-0.88-1.042-0.88
				c-1.756,0-3.188,2.291-3.813,4.88l-0.948,3.791h-1.665l3.744-15.28l0.023-0.069H121.705z"/>
			<path d="M147.757,69.331c-0.625,1.458-1.665,3.605-3.444,3.605c-0.695,0-1.479-0.321-1.479-1.249
				c0-0.461,0.485-2.124,0.878-3.835l0.879-3.792h-3.493l-0.923,4.092c-2.127,9.015-4.254,9.78-5.965,9.78
				c-0.716,0-1.756-0.35-1.756-1.272c0-0.532,0.345-1.04,1.015-1.04c0.301,0,0.788,0.3,0.788,0.946c0,0.116-0.254,0.555-0.254,0.579
				c0,0.254,0.346,0.254,0.509,0.254c0.692,0,1.387-0.462,1.757-1.295c0.254-0.531,0.784-2.219,1.108-3.676l1.989-8.368h-1.989
				l0.161-0.532h1.99c0.532-2.52,2.542-6.841,5.409-6.841c0.394,0,0.717,0.046,0.995,0.116c0.278,0.045,0.485,0.113,0.623,0.113
				c0.51,0,1.064-0.16,1.596-0.184l-3.375,13.337c-0.069,0.35-0.323,1.042-0.323,1.412c0,0.368,0.116,0.671,0.508,0.671
				c1.064,0,1.966-2.222,2.38-3.029L147.757,69.331z M144.752,63.528l1.178-4.531c-0.116-0.114-0.185-0.232-0.185-0.576
				c0-0.279,0.323-0.51,0.323-0.811c0-0.322-0.461-0.391-0.739-0.391c-2.634,0-3.583,4.369-4.092,6.309H144.752z"/>
			<path d="M152.31,72.936c-2.382,0-3.607-1.824-3.607-3.373c0-3.121,2.659-6.264,5.594-6.264c1.966,0,3.375,1.71,3.375,3.673
				C157.672,69.633,155.128,72.936,152.31,72.936z M150.46,70.556c0,1.042,0.715,1.919,1.756,1.919c1.526,0,2.218-1.249,2.681-2.544
				c0.486-1.338,0.88-2.819,0.88-4.252c0-1.155-0.463-1.919-1.643-1.919c-1.457,0-2.288,1.249-2.728,2.521
				C151.13,67.065,150.46,69.724,150.46,70.556z"/>
			<path d="M158.596,66.533c0.439-1.407,1.687-3.233,3.259-3.233c0.785,0,1.226,0.392,1.226,1.225c0,0.76-1.805,7.142-1.805,7.279
				c0.025,0.256,0.162,0.509,0.463,0.509c0.694,0,1.249-0.83,1.779-1.595c1.387-2.031,2.358-4.692,3.123-7.189h1.593
				c-0.483,2.035-1.616,5.017-1.616,7.166c0,0.788,0.092,1.549,0.995,1.549c1.963,0,3.581-5.615,3.581-6.633
				c0-0.833-1.062-0.326-1.062-1.526c0-0.51,0.439-0.784,0.902-0.784c0.461,0,0.786,0.646,0.786,1.338
				c0,2.729-1.85,8.299-4.786,8.299c-1.548,0-1.919-1.361-1.919-2.356c0-0.277,0.094-1.272,0.162-1.828l-0.045-0.021
				c-1.712,3.469-2.868,4.206-4.138,4.206c-0.788,0-1.365-0.577-1.365-1.338c0-0.232,1.756-6.774,1.756-7.353
				c0-0.022-0.208-0.209-0.323-0.209c-0.716,0-1.78,1.756-2.034,2.496H158.596z"/>
			<path d="M180.163,70.326c-0.857,1.572-1.828,2.61-3.678,2.61c-2.034,0-3.466-1.779-3.466-3.673c0-2.892,2.865-5.964,5.641-5.964
				c1.248,0,2.219,0.784,2.219,1.894c0,1.456-1.434,2.981-5.708,3.005c-0.165,0.646-0.348,1.295-0.348,2.012
				c0,1.156,0.532,2.149,1.757,2.149c1.664,0,2.38-0.924,3.19-2.312L180.163,70.326z M179.237,64.893
				c0-0.556-0.439-1.063-0.995-1.063c-1.618,0-2.589,2.565-2.959,3.883C178.012,67.712,179.237,66.417,179.237,64.893z"/>
			<path d="M184.276,64.06h-1.825l0.162-0.532h0.438c0.649,0,2.219-0.14,3.099-0.229l-0.577,2.311l0.045,0.023
				c0.555-1.066,1.599-2.334,2.843-2.334c0.533,0,1.065,0.321,1.065,0.924c0,0.53-0.417,0.923-0.925,0.923
				c-0.648,0-0.923-0.622-1.318-0.622c-0.485,0-1.826,1.618-2.382,3.835l-1.085,4.325h-1.664L184.276,64.06z"/>
			<path d="M189.271,71.132c0-0.553,0.251-1.109,0.854-1.109c0.461,0,0.88,0.371,0.88,0.881c0,0.415-0.348,0.854-0.348,1.039
				c0,0.416,0.808,0.532,1.155,0.532c1.597,0,2.198-0.625,2.198-1.595c0-1.55-2.936-2.796-2.936-5.062
				c0-1.734,1.525-2.519,2.981-2.519c0.646,0,1.941,0.321,1.941,1.478c0,0.555-0.322,0.856-0.808,0.856s-0.739-0.326-0.739-0.694
				c0-0.186,0.138-0.509,0.138-0.693c0-0.416-0.464-0.485-0.833-0.485c-0.764,0-1.434,0.414-1.434,1.296
				c0,1.017,1.387,1.711,2.683,3.374c0.345,0.438,0.439,1.038,0.414,1.64c0,0.556-0.625,2.866-3.442,2.866
				C189.664,72.936,189.271,71.622,189.271,71.132z"/>
			<path d="M213.864,69.331c-0.578,1.619-1.547,3.605-3.444,3.605c-0.787,0-1.341-0.67-1.365-1.407h-0.044
				c-0.581,0.83-1.618,1.407-2.66,1.407c-1.942,0-3.028-1.757-3.028-3.212c0-2.797,2.589-6.425,5.434-6.425
				c0.833,0,1.524,0.367,2.035,1.015l1.847-6.979h-1.917l0.16-0.531h0.879c1.643,0,2.197-0.07,2.729-0.116l-3.86,14.539
				c-0.045,0.209-0.069,0.324-0.069,0.349c0,0.298,0.347,0.531,0.579,0.531c0.97,0,1.917-2.198,2.241-2.959L213.864,69.331z
				 M205.08,70.741c0,0.97,0.646,1.734,1.594,1.734c1.087,0,1.989-0.832,2.868-3.561c0.276-0.83,0.832-2.634,0.832-3.56
				c0-0.925-0.485-1.595-1.456-1.595c-1.803,0-2.66,2.358-3.168,3.813C205.452,68.499,205.08,69.748,205.08,70.741z"/>
			<path d="M221.885,70.326c-0.854,1.572-1.828,2.61-3.675,2.61c-2.033,0-3.469-1.779-3.469-3.673c0-2.892,2.868-5.964,5.641-5.964
				c1.249,0,2.219,0.784,2.219,1.894c0,1.456-1.431,2.981-5.708,3.005c-0.162,0.646-0.348,1.295-0.348,2.012
				c0,1.156,0.532,2.149,1.757,2.149c1.666,0,2.38-0.924,3.19-2.312L221.885,70.326z M220.961,64.893
				c0-0.556-0.439-1.063-0.994-1.063c-1.621,0-2.59,2.565-2.959,3.883C219.735,67.712,220.961,66.417,220.961,64.893z"/>
			<path d="M225.744,57.334l0.162-0.531h0.88c1.641,0,2.195-0.07,2.727-0.116l-3.79,14.17c-0.07,0.275-0.208,0.602-0.208,0.83
				c0,0.303,0.369,0.441,0.648,0.441c0.946,0,1.803-1.549,2.473-3.027l0.439,0.162c-0.833,2.219-2.036,3.673-3.654,3.673
				c-0.715,0-1.456-0.368-1.456-1.201c0-0.3,0.14-0.925,0.232-1.292l3.442-13.108H225.744z"/>
			<path d="M235.64,69.516c-0.648,2.013-1.735,3.42-3.471,3.42c-0.714,0-1.455-0.368-1.455-1.201c0-0.3,0.14-0.925,0.233-1.292
				l1.664-6.383h-1.828l0.165-0.532h0.437c0.649,0,2.219-0.14,3.099-0.229l-2.011,7.558c-0.069,0.275-0.209,0.602-0.209,0.83
				c0,0.303,0.371,0.441,0.648,0.441c0.949,0,1.803-1.549,2.286-2.775L235.64,69.516z M233.465,58.629
				c0-0.626,0.461-1.136,1.062-1.136c0.601,0,1.065,0.51,1.065,1.136c0,0.646-0.464,1.109-1.065,1.109
				C233.926,59.739,233.465,59.275,233.465,58.629z"/>
			<path d="M236.029,66.835c0.555-1.457,1.574-3.536,3.308-3.536c0.737,0,1.316,0.392,1.316,1.293c0,0.464-1.917,6.634-1.917,7.051
				c0,0.646,0.461,0.716,0.899,0.716c2.498,0,4.37-4.922,4.37-6.633c0-0.973-1.178-0.624-1.178-1.666
				c0-0.439,0.37-0.761,0.785-0.761c0.648,0,1.042,0.601,1.042,1.594c0,2.148-1.64,8.043-5.456,8.043
				c-0.902,0-1.966-0.439-1.966-1.523c0-0.672,1.781-6.753,1.781-6.936c0-0.208-0.16-0.44-0.416-0.44
				c-0.74,0-1.779,2.082-2.082,2.799H236.029z"/>
			<path d="M252.721,70.326c-0.856,1.572-1.828,2.61-3.678,2.61c-2.035,0-3.466-1.779-3.466-3.673c0-2.892,2.865-5.964,5.639-5.964
				c1.249,0,2.222,0.784,2.222,1.894c0,1.456-1.436,2.981-5.711,3.005c-0.162,0.646-0.347,1.295-0.347,2.012
				c0,1.156,0.531,2.149,1.756,2.149c1.664,0,2.382-0.924,3.189-2.312L252.721,70.326z M251.793,64.893
				c0-0.556-0.438-1.063-0.993-1.063c-1.617,0-2.589,2.565-2.957,3.883C250.568,67.712,251.793,66.417,251.793,64.893z"/>
			<path d="M256.835,64.06h-1.826l0.16-0.532h0.44c0.647,0,2.217-0.14,3.095-0.229l-0.576,2.311l0.045,0.023
				c0.556-1.066,1.598-2.334,2.844-2.334c0.533,0,1.065,0.321,1.065,0.924c0,0.53-0.419,0.923-0.926,0.923
				c-0.648,0-0.923-0.622-1.318-0.622c-0.484,0-1.823,1.618-2.382,3.835l-1.086,4.325h-1.664L256.835,64.06z"/>
			<path d="M269.176,70.326c-0.854,1.572-1.826,2.61-3.672,2.61c-2.036,0-3.471-1.779-3.471-3.673c0-2.892,2.87-5.964,5.643-5.964
				c1.247,0,2.217,0.784,2.217,1.894c0,1.456-1.431,2.981-5.708,3.005c-0.162,0.646-0.349,1.295-0.349,2.012
				c0,1.156,0.53,2.149,1.756,2.149c1.668,0,2.382-0.924,3.193-2.312L269.176,70.326z M268.253,64.893
				c0-0.556-0.439-1.063-0.993-1.063c-1.621,0-2.591,2.565-2.959,3.883C267.027,67.712,268.253,66.417,268.253,64.893z"/>
			<path d="M281.706,69.331c-0.577,1.619-1.549,3.605-3.445,3.605c-0.786,0-1.34-0.67-1.363-1.407h-0.047
				c-0.578,0.83-1.617,1.407-2.657,1.407c-1.942,0-3.026-1.757-3.026-3.212c0-2.797,2.586-6.425,5.429-6.425
				c0.833,0,1.526,0.367,2.035,1.015l1.85-6.979h-1.92l0.164-0.531h0.876c1.645,0,2.198-0.07,2.73-0.116l-3.861,14.539
				c-0.048,0.209-0.071,0.324-0.071,0.349c0,0.298,0.349,0.531,0.578,0.531c0.973,0,1.919-2.198,2.245-2.959L281.706,69.331z
				 M272.923,70.741c0,0.97,0.646,1.734,1.593,1.734c1.086,0,1.989-0.832,2.866-3.561c0.279-0.83,0.833-2.634,0.833-3.56
				c0-0.925-0.484-1.595-1.456-1.595c-1.804,0-2.658,2.358-3.165,3.813C273.291,68.499,272.923,69.748,272.923,70.741z"/>
		</g>
	</g>
</g>
<g>
	<circle cx="246.618" cy="180.525" r="83.188"/>
	<g>
		<g>
			<path fill="#FFFFFF" d="M180.685,181.669c-2.385-0.022-4.769,0-7.153,0c-0.245,0-0.356-0.335,0.045-0.312
				c0.312,0.021,0.779,0.067,1.047,0.021c0.78-0.133,0.78-0.133,0.78-1.335v-12.436c0-1.203,0-1.203-0.78-1.337
				c-0.268-0.044-0.735,0-1.047,0.021c-0.401,0.024-0.29-0.311-0.045-0.311c2.206,0.022,4.256,0.044,6.351-0.089
				c3.187-0.201,4.947,1.426,4.969,3.498c0.045,3.343-2.763,3.632-4.3,3.788v0.045c2.719,0.312,4.702,1.559,4.702,4.323
				C185.253,180.488,182.734,181.691,180.685,181.669z M178.791,166.271c-0.246,0.021-0.624,0.046-0.892,0.046
				c-0.223,0-0.312,0.133-0.312,0.312v5.971c0,0.18,0.178,0.402,0.423,0.402h0.981c1.938,0,3.676-0.424,3.676-3.409
				C182.667,168.433,182.133,166.093,178.791,166.271z M178.746,173.357h-0.736c-0.267,0-0.423,0.246-0.423,0.446v6.997
				c0,0.513,0.223,0.534,0.513,0.534c0.445,0,0.869,0.022,1.27,0c2.296-0.134,3.454-1.426,3.454-3.988
				C182.823,174.917,182.4,173.357,178.746,173.357z"/>
			<path fill="#FFFFFF" d="M198.698,181.669h-11.633c-0.313,0-0.336-0.381,0-0.357c0.581,0.044,0.76,0.088,1.298,0
				c0.447-0.068,0.536-0.313,0.536-0.805v-13.67c0-0.247-0.201-0.582-0.38-0.604c-0.492-0.045-0.917-0.045-1.454,0
				c-0.403,0.047-0.358-0.357,0-0.357c2.125,0.045,4.116,0,5.95,0c0.381,0,0.381,0.38,0,0.357c-0.536-0.045-0.962-0.045-1.454,0
				c-0.201,0.022-0.425,0.246-0.425,0.493l0.022,14.451c0,0.135,0.269,0.179,0.402,0.179c0.739,0.022,0.918,0,1.724-0.044
				c4.115-0.225,5.413-0.561,5.413-4.609c0-0.29,0.358-0.312,0.336,0c-0.09,1.59-0.112,3.132,0,4.653
				C199.057,181.558,198.944,181.669,198.698,181.669z"/>
			<path fill="#FFFFFF" d="M208.059,181.828c-4.166,0-7.224-3.499-7.224-8.197c0-4.409,3.058-7.932,7.224-7.932
				c4.188,0,7.245,3.522,7.245,7.932C215.304,178.329,212.246,181.828,208.059,181.828z M207.925,166.052
				c-4.32,0.066-4.696,4.786-4.696,7.622c0,3.302,0.598,7.888,4.985,7.799c4.32-0.066,4.741-4.784,4.697-7.887
				C212.866,169.864,212.312,165.963,207.925,166.052z"/>
			<path fill="#FFFFFF" d="M247.534,166.212c-0.136,0.021-0.201,0.089-0.201,0.223v14.501c0,0.179,0.089,0.334,0.356,0.357
				c0.536,0.045,0.782,0.045,1.251,0c0.381-0.045,0.381,0.334,0,0.334c-1.965-0.044-3.551-0.044-5.518,0.023
				c-0.381,0-0.381-0.381,0-0.357c0.559,0.045,0.938,0.045,1.385,0c0.358-0.045,0.335-0.179,0.335-0.357v-13.339l-4.781,14.567
				c0,0-0.066-0.022-0.089-0.066l-4.826-14.882c0,0-0.067,0.046-0.067,0.09v11.529c0,1.923,0.692,2.524,1.922,2.458
				c0.379-0.023,0.379,0.334,0,0.334c-1.342,0-2.57-0.066-3.889-0.021c-0.38,0-0.38-0.336,0-0.312
				c1.431,0.045,1.631-0.647,1.631-2.077v-12.781c0-0.134,0.022-0.201-0.2-0.223c-0.515-0.045-0.827-0.045-1.408-0.022
				c-0.357,0-0.357-0.336,0-0.291c1.273,0.045,2.458,0.022,3.731-0.023c0.135,0,0.156,0.068,0.179,0.135l3.598,12.825l4.156-12.847
				c0.044-0.113,0.134-0.113,0.18-0.113c1.272,0.046,2.434,0.046,3.73,0c0.334-0.021,0.379,0.358,0,0.337
				C248.605,166.19,248.093,166.167,247.534,166.212z"/>
			<path fill="#FFFFFF" d="M263.019,166.281c-0.941,0-1.076,0.582-1.344,1.23l-3.473,7.997c-0.021,0.023-0.021,0.068-0.021,0.09
				v5.488c0,0.224,0.021,0.224,0.268,0.224h1.658c0.426,0,0.426,0.359,0,0.359c-1.972-0.046-3.966-0.046-5.938,0
				c-0.336,0-0.381-0.359,0-0.359h1.568c0.247,0,0.247-0.022,0.247-0.224v-5.174l-3.808-9.229c-0.113-0.269-0.225-0.381-0.314-0.402
				c-0.516-0.136-0.627-0.046-0.918,0c-0.359,0.021-0.404-0.405-0.022-0.405c1.455,0.023,3.315,0.046,4.815,0
				c0.381,0,0.381,0.449-0.022,0.405c-0.202-0.046-0.583-0.046-1.008-0.046c-0.247,0-0.044,0.448-0.044,0.448l3.404,8.199
				c0.045,0.089,0.09,0,0.09,0l2.599-6.206c0.38-0.896,0.56-1.366,0.56-1.792c0-0.381-0.268-0.604-0.762-0.604h-0.447
				c-0.426,0-0.471-0.427,0-0.405c1.008,0.046,2.262,0,3.203,0c0.426,0,0.447,0.405,0,0.405H263.019z"/>
			<path fill="#FFFFFF" d="M277.062,181.662c-2.153-0.087-4.307-0.133-6.547-0.065c-0.246,0-0.356-0.333,0.043-0.311
				c0.311,0.021,0.777,0.066,1.044,0.021c0.776-0.133,0.776-0.133,0.776-1.331v-12.34c0-1.222,0-1.222-0.776-1.332
				c-0.267-0.045-0.733,0-1.044,0.022c-0.399,0.022-0.289-0.333-0.043-0.333c2.174,0.044,4.394-0.2,6.502-0.089
				c5.838,0.311,7.17,4.15,7.259,8.034C284.362,178.689,281.435,181.839,277.062,181.662z M275.886,166.282
				c-0.201,0.022-0.445,0.045-0.689,0.067c-0.223,0-0.643-0.022-0.643,0.532v13.981c0,0.444,0.177,0.378,0.398,0.4
				c0.555,0.044,0.955,0,1.421,0c1.931,0,5.481-0.755,5.481-7.324C281.854,170.232,281.257,166.304,275.886,166.282z"/>
			<path fill="#FFFFFF" d="M291.988,181.669c-0.333,0-0.421-0.333,0-0.312c0.422,0.023,0.801,0.045,1.179,0
				c0.889-0.111,0.956-0.311,0.867-0.578l-1.312-4.045c-0.022-0.089-0.09-0.089-0.179-0.089h-4.779c-0.067,0-0.111,0-0.111,0.066
				l-1.268,4.024c-0.089,0.266-0.155,0.555,0.645,0.621c0.512,0.045,0.823,0.023,1.334,0c0.379-0.021,0.268,0.312,0,0.312h-4.202
				c-0.289,0-0.4-0.333,0.022-0.312c0.289,0.023,0.533,0.045,0.778,0c0.778-0.133,0.845-0.177,1.2-1.333l4.58-14.519
				c0.067-0.223,0.156-0.223,0.244,0l5.205,14.519c0.443,1.222,0.354,1.289,1.199,1.333c0.289,0.023,0.488,0.023,0.732,0
				c0.469-0.044,0.4,0.312,0.023,0.312H291.988z M290.188,169.308c-0.156-0.423-0.156-0.511-0.312,0.045l-2.067,6.915
				c-0.022,0.044,0.021,0.066,0.089,0.066h4.535c0.066,0,0.156,0,0.111-0.09L290.188,169.308z"/>
			<path fill="#FFFFFF" d="M309.056,166.281c-0.939,0-1.074,0.582-1.344,1.231l-3.473,7.997c-0.021,0.023-0.021,0.067-0.021,0.091
				v5.487c0,0.224,0.021,0.224,0.27,0.224h1.657c0.426,0,0.426,0.358,0,0.358c-1.972-0.045-3.965-0.045-5.938,0
				c-0.336,0-0.38-0.358,0-0.358h1.568c0.246,0,0.246-0.022,0.246-0.224v-5.174l-3.808-9.23c-0.111-0.269-0.225-0.381-0.314-0.402
				c-0.515-0.136-0.627-0.046-0.918,0c-0.359,0.021-0.404-0.405-0.023-0.405c1.458,0.023,3.316,0.046,4.817,0
				c0.381,0,0.381,0.449-0.022,0.405c-0.201-0.046-0.582-0.046-1.008-0.046c-0.247,0-0.045,0.448-0.045,0.448l3.406,8.2
				c0.045,0.089,0.09,0,0.09,0l2.598-6.207c0.381-0.896,0.561-1.366,0.561-1.792c0-0.381-0.268-0.604-0.762-0.604h-0.448
				c-0.425,0-0.47-0.427,0-0.405c1.008,0.046,2.264,0,3.203,0c0.427,0,0.448,0.405,0,0.405H309.056z"/>
			<path fill="#FFFFFF" d="M315.408,181.666c-2.521-0.088-3.171-1.237-3.952-1.237c-0.501,0-0.564,0.542-0.564,0.911
				c0.021,0.238-0.326,0.195-0.305,0c0.131-1.585,0.065-3.214,0-4.995c0-0.238,0.326-0.217,0.326,0
				c0.107,3.215,2.366,4.995,4.561,4.995c2.02,0,3.453-1.304,3.453-3.192c0-1.498-1.173-2.388-3.519-3.519
				c-3.823-1.824-4.821-2.258-4.821-4.604c0-2.389,1.564-4.127,3.887-4.149c2.672-0.021,2.977,1.281,3.672,1.281
				c0.477,0,0.607-0.368,0.607-0.63c0-0.238,0.369-0.238,0.349,0c-0.065,1.412-0.065,2.368,0,3.976c0.021,0.261-0.325,0.239-0.349,0
				c-0.131-2.172-1.781-4.279-4.279-4.301c-1.758-0.021-3.018,1.194-3.018,3.105c0,1.021,0.781,1.694,4.17,2.976
				c3.518,1.325,4.3,2.715,4.3,4.562C319.926,179.602,318.427,181.774,315.408,181.666z"/>
			<path fill="#FFFFFF" d="M224.814,181.828c-4.166,0-7.224-3.499-7.224-8.197c0-4.409,3.058-7.932,7.224-7.932
				c4.188,0,7.244,3.522,7.244,7.932C232.059,178.329,229.002,181.828,224.814,181.828z M224.681,166.052
				c-4.32,0.066-4.696,4.786-4.696,7.622c0,3.302,0.598,7.888,4.984,7.799c4.321-0.066,4.742-4.784,4.697-7.887
				C229.622,169.864,229.068,165.963,224.681,166.052z"/>
		</g>
		<g>
			<g>
				<g>
					<line fill="#FFFFFF" x1="173.31" y1="191.38" x2="206.339" y2="191.38"/>
					<rect x="173.31" y="191.111" fill="#FFFFFF" width="33.029" height="0.538"/>
				</g>
				<g>
					<line fill="#FFFFFF" x1="286.862" y1="191.38" x2="319.891" y2="191.38"/>
					<rect x="286.862" y="191.111" fill="#FFFFFF" width="33.028" height="0.538"/>
				</g>
			</g>
			<g>
				<path fill="#FFFFFF" d="M209.102,190.057l-0.377,1.639c-0.866,3.672-1.732,3.983-2.43,3.983c-0.292,0-0.716-0.141-0.716-0.519
					c0-0.217,0.141-0.424,0.415-0.424c0.122,0,0.32,0.123,0.32,0.387c0,0.047-0.104,0.226-0.104,0.235
					c0,0.104,0.142,0.104,0.207,0.104c0.283,0,0.565-0.188,0.716-0.527c0.104-0.217,0.32-0.903,0.452-1.47l0.81-3.408h-0.81
					l0.065-0.217h0.812c0.216-1.027,1.035-2.787,2.203-2.787c0.357,0,0.725,0.169,0.725,0.592c0,0.208-0.169,0.359-0.367,0.359
					c-0.197,0-0.367-0.124-0.367-0.321c0-0.159,0.104-0.226,0.104-0.329c0-0.094-0.161-0.113-0.227-0.113
					c-0.424,0-1.14,0.895-1.385,2.6h0.941l-0.065,0.217H209.102z"/>
				<path fill="#FFFFFF" d="M211.004,190.057h-0.744l0.066-0.217h0.178c0.264,0,0.905-0.058,1.263-0.094l-0.235,0.941l0.019,0.01
					c0.227-0.435,0.65-0.951,1.158-0.951c0.217,0,0.434,0.131,0.434,0.377c0,0.216-0.17,0.376-0.377,0.376
					c-0.264,0-0.377-0.254-0.537-0.254c-0.197,0-0.744,0.659-0.97,1.562l-0.442,1.762h-0.678L211.004,190.057z"/>
				<path fill="#FFFFFF" d="M216.032,192.609c-0.349,0.641-0.744,1.064-1.498,1.064c-0.828,0-1.412-0.726-1.412-1.497
					c0-1.178,1.168-2.43,2.298-2.43c0.509,0,0.904,0.319,0.904,0.771c0,0.594-0.584,1.215-2.326,1.225
					c-0.065,0.263-0.141,0.527-0.141,0.819c0,0.471,0.216,0.876,0.715,0.876c0.678,0,0.971-0.377,1.3-0.942L216.032,192.609z
					 M215.656,190.396c0-0.227-0.18-0.434-0.406-0.434c-0.658,0-1.054,1.046-1.205,1.582
					C215.156,191.544,215.656,191.017,215.656,190.396z"/>
				<path fill="#FFFFFF" d="M216.606,192.938c0-0.226,0.104-0.452,0.349-0.452c0.188,0,0.357,0.151,0.357,0.359
					c0,0.169-0.142,0.348-0.142,0.423c0,0.17,0.33,0.217,0.471,0.217c0.65,0,0.896-0.254,0.896-0.649
					c0-0.632-1.196-1.14-1.196-2.062c0-0.707,0.622-1.026,1.215-1.026c0.264,0,0.791,0.131,0.791,0.603
					c0,0.226-0.132,0.349-0.329,0.349c-0.198,0-0.302-0.133-0.302-0.283c0-0.075,0.057-0.207,0.057-0.282
					c0-0.17-0.188-0.197-0.339-0.197c-0.312,0-0.584,0.168-0.584,0.527c0,0.414,0.565,0.697,1.093,1.375
					c0.141,0.178,0.179,0.423,0.169,0.668c0,0.226-0.254,1.168-1.403,1.168C216.767,193.673,216.606,193.137,216.606,192.938z"/>
				<path fill="#FFFFFF" d="M220.722,187.317l0.066-0.217h0.301c0.669,0,0.896-0.028,1.111-0.047l-0.856,3.55l0.019,0.009
					c0.319-0.509,0.951-0.865,1.394-0.865c0.471,0,0.829,0.169,0.829,0.781c0,0.282-0.669,2.58-0.669,2.655
					c0,0.151,0.151,0.189,0.264,0.189c0.434,0,0.744-0.792,0.876-1.141l0.179,0.076c-0.254,0.63-0.603,1.365-1.356,1.365
					c-0.32,0-0.593-0.16-0.593-0.51c0-0.564,0.669-2.456,0.669-2.768c0-0.302-0.227-0.358-0.425-0.358
					c-0.715,0-1.299,0.934-1.554,1.988l-0.386,1.544h-0.678l1.525-6.225l0.009-0.028H220.722z"/>
				<path fill="#FFFFFF" d="M231.335,192.204c-0.254,0.594-0.678,1.47-1.403,1.47c-0.283,0-0.603-0.132-0.603-0.51
					c0-0.188,0.197-0.865,0.357-1.562l0.358-1.545h-1.423l-0.376,1.667c-0.866,3.672-1.733,3.984-2.43,3.984
					c-0.292,0-0.716-0.143-0.716-0.519c0-0.217,0.141-0.424,0.414-0.424c0.122,0,0.32,0.122,0.32,0.386
					c0,0.047-0.104,0.226-0.104,0.235c0,0.104,0.141,0.104,0.207,0.104c0.282,0,0.565-0.188,0.716-0.527
					c0.104-0.217,0.32-0.903,0.452-1.498l0.81-3.408h-0.81l0.065-0.217h0.811c0.217-1.027,1.035-2.787,2.203-2.787
					c0.16,0,0.292,0.019,0.405,0.047c0.113,0.019,0.197,0.046,0.254,0.046c0.208,0,0.434-0.065,0.65-0.074l-1.375,5.434
					c-0.028,0.143-0.132,0.424-0.132,0.575c0,0.15,0.047,0.273,0.207,0.273c0.434,0,0.801-0.905,0.97-1.234L231.335,192.204z
					 M230.11,189.84l0.48-1.847c-0.047-0.047-0.075-0.095-0.075-0.234c0-0.114,0.132-0.208,0.132-0.33
					c0-0.132-0.188-0.159-0.302-0.159c-1.073,0-1.46,1.78-1.667,2.57H230.11z"/>
				<path fill="#FFFFFF" d="M233.19,193.673c-0.971,0-1.47-0.744-1.47-1.375c0-1.271,1.083-2.552,2.279-2.552
					c0.8,0,1.375,0.697,1.375,1.496C235.375,192.328,234.339,193.673,233.19,193.673z M232.437,192.703
					c0,0.425,0.292,0.782,0.716,0.782c0.621,0,0.903-0.509,1.092-1.036c0.198-0.545,0.358-1.148,0.358-1.732
					c0-0.471-0.188-0.781-0.669-0.781c-0.594,0-0.932,0.509-1.111,1.026C232.71,191.281,232.437,192.365,232.437,192.703z"/>
				<path fill="#FFFFFF" d="M235.751,191.064c0.179-0.573,0.688-1.317,1.327-1.317c0.32,0,0.5,0.16,0.5,0.499
					c0,0.31-0.735,2.909-0.735,2.966c0.01,0.104,0.066,0.207,0.188,0.207c0.283,0,0.509-0.338,0.725-0.649
					c0.565-0.828,0.961-1.912,1.272-2.929h0.649c-0.197,0.829-0.659,2.043-0.659,2.919c0,0.321,0.038,0.631,0.405,0.631
					c0.8,0,1.459-2.288,1.459-2.702c0-0.339-0.433-0.133-0.433-0.622c0-0.207,0.179-0.319,0.367-0.319s0.32,0.264,0.32,0.545
					c0,1.112-0.753,3.382-1.949,3.382c-0.631,0-0.782-0.556-0.782-0.961c0-0.113,0.038-0.519,0.066-0.744l-0.019-0.009
					c-0.698,1.413-1.169,1.714-1.687,1.714c-0.32,0-0.556-0.235-0.556-0.546c0-0.095,0.716-2.76,0.716-2.995
					c0-0.009-0.085-0.085-0.132-0.085c-0.292,0-0.726,0.715-0.829,1.017H235.751z"/>
				<path fill="#FFFFFF" d="M244.537,192.609c-0.349,0.641-0.744,1.064-1.498,1.064c-0.828,0-1.412-0.726-1.412-1.497
					c0-1.178,1.167-2.43,2.298-2.43c0.509,0,0.904,0.319,0.904,0.771c0,0.594-0.584,1.215-2.326,1.225
					c-0.066,0.263-0.142,0.527-0.142,0.819c0,0.471,0.217,0.876,0.716,0.876c0.678,0,0.97-0.377,1.3-0.942L244.537,192.609z
					 M244.16,190.396c0-0.227-0.179-0.434-0.405-0.434c-0.659,0-1.055,1.046-1.205,1.582
					C243.661,191.544,244.16,191.017,244.16,190.396z"/>
				<path fill="#FFFFFF" d="M246.213,190.057h-0.743l0.065-0.217h0.179c0.265,0,0.903-0.058,1.263-0.094l-0.235,0.941l0.019,0.01
					c0.226-0.435,0.651-0.951,1.157-0.951c0.218,0,0.435,0.131,0.435,0.377c0,0.216-0.17,0.376-0.377,0.376
					c-0.264,0-0.376-0.254-0.537-0.254c-0.197,0-0.744,0.659-0.97,1.562l-0.442,1.762h-0.678L246.213,190.057z"/>
				<path fill="#FFFFFF" d="M248.248,192.938c0-0.226,0.103-0.452,0.348-0.452c0.188,0,0.358,0.151,0.358,0.359
					c0,0.169-0.142,0.348-0.142,0.423c0,0.17,0.329,0.217,0.471,0.217c0.65,0,0.896-0.254,0.896-0.649
					c0-0.632-1.196-1.14-1.196-2.062c0-0.707,0.622-1.026,1.215-1.026c0.263,0,0.79,0.131,0.79,0.603
					c0,0.226-0.131,0.349-0.328,0.349c-0.199,0-0.302-0.133-0.302-0.283c0-0.075,0.056-0.207,0.056-0.282
					c0-0.17-0.188-0.197-0.339-0.197c-0.312,0-0.584,0.168-0.584,0.527c0,0.414,0.565,0.697,1.093,1.375
					c0.141,0.178,0.18,0.423,0.169,0.668c0,0.226-0.255,1.168-1.402,1.168C248.407,193.673,248.248,193.137,248.248,192.938z"/>
				<path fill="#FFFFFF" d="M258.267,192.204c-0.234,0.66-0.63,1.47-1.402,1.47c-0.321,0-0.547-0.273-0.557-0.574h-0.018
					c-0.236,0.339-0.66,0.574-1.084,0.574c-0.791,0-1.233-0.717-1.233-1.309c0-1.141,1.055-2.618,2.214-2.618
					c0.339,0,0.62,0.149,0.828,0.414l0.753-2.844h-0.781l0.065-0.217h0.357c0.67,0,0.896-0.028,1.112-0.047l-1.573,5.923
					c-0.018,0.085-0.027,0.132-0.027,0.142c0,0.122,0.141,0.217,0.235,0.217c0.396,0,0.781-0.896,0.913-1.205L258.267,192.204z
					 M254.688,192.779c0,0.395,0.264,0.706,0.649,0.706c0.442,0,0.811-0.339,1.169-1.45c0.112-0.339,0.338-1.073,0.338-1.45
					s-0.197-0.649-0.593-0.649c-0.734,0-1.083,0.96-1.29,1.553C254.84,191.865,254.688,192.374,254.688,192.779z"/>
				<path fill="#FFFFFF" d="M261.534,192.609c-0.348,0.641-0.744,1.064-1.496,1.064c-0.829,0-1.414-0.726-1.414-1.497
					c0-1.178,1.169-2.43,2.299-2.43c0.508,0,0.903,0.319,0.903,0.771c0,0.594-0.583,1.215-2.325,1.225
					c-0.066,0.263-0.143,0.527-0.143,0.819c0,0.471,0.217,0.876,0.717,0.876c0.678,0,0.969-0.377,1.299-0.942L261.534,192.609z
					 M261.158,190.396c0-0.227-0.179-0.434-0.405-0.434c-0.66,0-1.055,1.046-1.205,1.582
					C260.659,191.544,261.158,191.017,261.158,190.396z"/>
				<path fill="#FFFFFF" d="M263.106,187.317l0.066-0.217h0.358c0.669,0,0.894-0.028,1.11-0.047l-1.543,5.772
					c-0.029,0.112-0.086,0.245-0.086,0.338c0,0.124,0.15,0.18,0.265,0.18c0.386,0,0.734-0.631,1.007-1.232l0.18,0.065
					c-0.34,0.904-0.83,1.497-1.488,1.497c-0.292,0-0.594-0.15-0.594-0.49c0-0.122,0.057-0.376,0.094-0.526l1.403-5.34H263.106z"/>
				<path fill="#FFFFFF" d="M267.138,192.28c-0.264,0.819-0.707,1.394-1.414,1.394c-0.29,0-0.592-0.15-0.592-0.49
					c0-0.122,0.057-0.376,0.096-0.526l0.677-2.6h-0.745l0.068-0.217h0.178c0.264,0,0.903-0.058,1.262-0.094l-0.819,3.079
					c-0.028,0.112-0.085,0.245-0.085,0.338c0,0.124,0.15,0.18,0.264,0.18c0.387,0,0.734-0.631,0.932-1.131L267.138,192.28z
					 M266.253,187.844c0-0.255,0.188-0.463,0.432-0.463c0.246,0,0.435,0.208,0.435,0.463c0,0.263-0.188,0.452-0.435,0.452
					C266.44,188.296,266.253,188.107,266.253,187.844z"/>
				<path fill="#FFFFFF" d="M267.297,191.187c0.226-0.594,0.642-1.44,1.348-1.44c0.3,0,0.536,0.16,0.536,0.526
					c0,0.189-0.781,2.703-0.781,2.873c0,0.264,0.188,0.292,0.366,0.292c1.019,0,1.78-2.006,1.78-2.702
					c0-0.396-0.48-0.255-0.48-0.679c0-0.18,0.151-0.311,0.32-0.311c0.264,0,0.424,0.245,0.424,0.649
					c0,0.875-0.668,3.277-2.223,3.277c-0.367,0-0.801-0.18-0.801-0.621c0-0.273,0.727-2.751,0.727-2.825
					c0-0.085-0.066-0.18-0.17-0.18c-0.302,0-0.725,0.848-0.848,1.14H267.297z"/>
				<path fill="#FFFFFF" d="M274.097,192.609c-0.349,0.641-0.744,1.064-1.498,1.064c-0.829,0-1.412-0.726-1.412-1.497
					c0-1.178,1.168-2.43,2.297-2.43c0.51,0,0.906,0.319,0.906,0.771c0,0.594-0.586,1.215-2.327,1.225
					c-0.065,0.263-0.142,0.527-0.142,0.819c0,0.471,0.217,0.876,0.715,0.876c0.679,0,0.971-0.377,1.301-0.942L274.097,192.609z
					 M273.72,190.396c0-0.227-0.179-0.434-0.405-0.434c-0.659,0-1.055,1.046-1.204,1.582
					C273.22,191.544,273.72,191.017,273.72,190.396z"/>
				<path fill="#FFFFFF" d="M275.772,190.057h-0.743l0.065-0.217h0.18c0.264,0,0.902-0.058,1.26-0.094l-0.234,0.941l0.019,0.01
					c0.227-0.435,0.651-0.951,1.158-0.951c0.218,0,0.435,0.131,0.435,0.377c0,0.216-0.171,0.376-0.377,0.376
					c-0.265,0-0.377-0.254-0.537-0.254c-0.197,0-0.743,0.659-0.971,1.562l-0.442,1.762h-0.679L275.772,190.057z"/>
				<path fill="#FFFFFF" d="M280.801,192.609c-0.348,0.641-0.744,1.064-1.495,1.064c-0.83,0-1.414-0.726-1.414-1.497
					c0-1.178,1.168-2.43,2.298-2.43c0.509,0,0.903,0.319,0.903,0.771c0,0.594-0.583,1.215-2.325,1.225
					c-0.065,0.263-0.142,0.527-0.142,0.819c0,0.471,0.216,0.876,0.715,0.876c0.68,0,0.971-0.377,1.301-0.942L280.801,192.609z
					 M280.425,190.396c0-0.227-0.179-0.434-0.404-0.434c-0.66,0-1.056,1.046-1.206,1.582
					C279.926,191.544,280.425,191.017,280.425,190.396z"/>
				<path fill="#FFFFFF" d="M285.905,192.204c-0.234,0.66-0.631,1.47-1.403,1.47c-0.32,0-0.546-0.273-0.556-0.574h-0.02
					c-0.234,0.339-0.658,0.574-1.082,0.574c-0.791,0-1.232-0.717-1.232-1.309c0-1.141,1.053-2.618,2.211-2.618
					c0.34,0,0.623,0.149,0.83,0.414l0.754-2.844h-0.783l0.067-0.217h0.356c0.67,0,0.896-0.028,1.112-0.047l-1.573,5.923
					c-0.02,0.085-0.029,0.132-0.029,0.142c0,0.122,0.143,0.217,0.236,0.217c0.396,0,0.781-0.896,0.914-1.205L285.905,192.204z
					 M282.327,192.779c0,0.395,0.264,0.706,0.648,0.706c0.443,0,0.811-0.339,1.168-1.45c0.114-0.339,0.34-1.073,0.34-1.45
					s-0.197-0.649-0.594-0.649c-0.734,0-1.082,0.96-1.289,1.553C282.478,191.865,282.327,192.374,282.327,192.779z"/>
			</g>
		</g>
	</g>
</g>
</svg>
