<?xml version="1.0" encoding="utf-8"?>
<!-- Generator: Adobe Illustrator 16.0.0, SVG Export Plug-In . SVG Version: 6.00 Build 0)  -->
<!DOCTYPE svg PUBLIC "-//W3C//DTD SVG 1.1//EN" "http://www.w3.org/Graphics/SVG/1.1/DTD/svg11.dtd">
<svg version="1.1" id="Layer_1" xmlns="http://www.w3.org/2000/svg" xmlns:xlink="http://www.w3.org/1999/xlink" x="0px" y="0px"
	 width="666px" height="618px" viewBox="0 0 666 618" enable-background="new 0 0 666 618" xml:space="preserve">
<polygon points="1,1 1,619 619,619 619,591 619,408 619,1 "/>
<g>
	<path fill="#FFFFFF" d="M93.246,113.468H20.072v-13.464h160.981v13.464h-73.173V304.89H93.246V113.468z"/>
	<path fill="#FFFFFF" d="M306.034,164.981V304.89h-14.342v-24.001c-10.83,13.464-31.611,27.513-59.125,27.513
		c-36.294,0-54.148-21.659-54.148-58.246v-85.174h14.343v82.247c0,41.27,25.757,47.709,44.196,47.709
		c22.245,0,45.075-16.391,54.734-31.903v-98.053H306.034z"/>
</g>
<line display="none" fill="none" stroke="#666666" stroke-width="10" stroke-miterlimit="10" x1="565" y1="30" x2="10" y2="631"/>
<line fill="none" stroke="#FFFFFF" stroke-width="15" stroke-linecap="round" stroke-miterlimit="10" x1="671.738" y1="90.71" x2="9.594" y2="624.128"/>
<polyline fill="none" stroke="#FFFFFF" stroke-width="8" stroke-miterlimit="10" points="-0.956,318.018 55.623,366.593 
	159.06,455.397 275.414,555.291 375.748,641.433 420.954,680.243 423,682 "/>
<path fill="#FFFFFF" d="M330.806,481.339c0-38.929,28.099-73.759,71.125-73.759c26.05,0,45.66,12,57.368,28.099v-89.564h14.342V551
	h-14.342v-24.294c-11.708,16.099-31.318,27.807-57.368,27.807C358.904,554.513,330.806,519.975,330.806,481.339z M459.299,507.096
	v-51.807c-9.366-19.317-30.44-34.538-54.441-34.538c-33.952,0-59.417,26.343-59.417,60.588c0,33.66,25.465,60.002,59.417,60.002
	C428.565,541.341,449.933,526.999,459.299,507.096z"/>
<path d="M664.771,481.339c0-29.873-17.25-57.313-45.771-68.472v14.99c18.781,10.065,31.136,29.898,31.136,53.481
	c0,23.18-12.354,42.887-31.136,52.913v15.018C647.521,538.203,664.771,510.987,664.771,481.339z"/>
<path fill="#FFFFFF" d="M590.134,541.341c-33.953,0-59.71-26.342-59.71-60.002c0-34.245,25.757-60.588,59.71-60.588
	c10.571,0,20.375,2.556,28.866,7.106v-14.99c-8.646-3.383-18.313-5.287-28.866-5.287c-45.075,0-74.345,34.83-74.345,73.759
	c0,38.636,29.27,73.174,74.345,73.174c10.553,0,20.221-1.889,28.866-5.243v-15.018C610.509,538.785,600.705,541.341,590.134,541.341
	z"/>
</svg>
